AtkinsonHyperlegibleMono-Bold.sfdir
StartChar: percent
Encoding: 37 37 332
Width: 632
GlyphClass: 1
Flags: W
LayerCount: 2
Fore
SplineSet
83.5 401 m 128,-1,1
 49 421 49 421 29 455 c 128,-1,2
 9 489 9 489 9 530 c 256,3,4
 9 571 9 571 29 605.5 c 128,-1,5
 49 640 49 640 83.5 660 c 128,-1,6
 118 680 118 680 158 680 c 0,7,8
 199 680 199 680 233 660 c 128,-1,9
 267 640 267 640 287 605.5 c 128,-1,10
 307 571 307 571 307 530 c 256,11,12
 307 489 307 489 287 455 c 128,-1,13
 267 421 267 421 233 401 c 128,-1,14
 199 381 199 381 158 381 c 0,15,0
 118 381 118 381 83.5 401 c 128,-1,1
203 484 m 128,-1,17
 222 503 222 503 222 530 c 256,18,19
 222 557 222 557 203 576.5 c 128,-1,20
 184 596 184 596 158 596 c 256,21,22
 132 596 132 596 113.5 576.5 c 128,-1,23
 95 557 95 557 95 530 c 256,24,25
 95 503 95 503 113.5 484 c 128,-1,26
 132 465 132 465 158 465 c 256,27,16
 184 465 184 465 203 484 c 128,-1,17
444 668 m 1,28,-1
 549 668 l 1,29,-1
 188 0 l 1,30,-1
 83 0 l 1,31,-1
 444 668 l 1,28,-1
399.5 7 m 128,-1,33
 365 27 365 27 345 61 c 128,-1,34
 325 95 325 95 325 136 c 256,35,36
 325 177 325 177 345 211.5 c 128,-1,37
 365 246 365 246 399.5 266 c 128,-1,38
 434 286 434 286 474 286 c 0,39,40
 515 286 515 286 549 266 c 128,-1,41
 583 246 583 246 603 211.5 c 128,-1,42
 623 177 623 177 623 136 c 256,43,44
 623 95 623 95 603 61 c 128,-1,45
 583 27 583 27 549 7 c 128,-1,46
 515 -13 515 -13 474 -13 c 0,47,32
 434 -13 434 -13 399.5 7 c 128,-1,33
519 90 m 128,-1,49
 538 109 538 109 538 136 c 256,50,51
 538 163 538 163 519 182.5 c 128,-1,52
 500 202 500 202 474 202 c 256,53,54
 448 202 448 202 429.5 182.5 c 128,-1,55
 411 163 411 163 411 136 c 256,56,57
 411 109 411 109 429.5 90 c 128,-1,58
 448 71 448 71 474 71 c 256,59,48
 500 71 500 71 519 90 c 128,-1,49
EndSplineSet
EndChar
StartChar: ampersand
Encoding: 38 38 289
Width: 632
GlyphClass: 1
Flags: W
LayerCount: 2
Fore
SplineSet
125 12 m 128,-1,1
 75 37 75 37 47.5 81 c 128,-1,2
 20 125 20 125 20 181 c 0,3,4
 20 240 20 240 58 294 c 128,-1,5
 96 348 96 348 169 383 c 1,6,7
 140 420 140 420 125.5 460 c 128,-1,8
 111 500 111 500 111 536 c 0,9,10
 111 584 111 584 134.5 622 c 128,-1,11
 158 660 158 660 199.5 681.5 c 128,-1,12
 241 703 241 703 293 703 c 0,13,14
 340 703 340 703 379 681 c 128,-1,15
 418 659 418 659 441 620.5 c 128,-1,16
 464 582 464 582 464 535 c 0,17,18
 464 425 464 425 343 355 c 1,19,-1
 440 237 l 1,20,21
 469 290 469 290 479 364 c 1,22,-1
 592 364 l 1,23,24
 583 300 583 300 560 242 c 128,-1,25
 537 184 537 184 510 145 c 1,26,-1
 625 0 l 1,27,-1
 480 0 l 1,28,-1
 431 59 l 1,29,30
 348 -13 348 -13 242 -13 c 0,31,0
 175 -13 175 -13 125 12 c 128,-1,1
360 146 m 1,33,-1
 236 296 l 1,34,35
 153 261 153 261 153 190 c 0,36,37
 153 151 153 151 180 127 c 128,-1,38
 207 103 207 103 252 103 c 0,39,32
 316 103 316 103 360 146 c 1,33,-1
337.5 479 m 128,-1,41
 356 505 356 505 356 532 c 0,42,43
 356 562 356 562 337.5 580.5 c 128,-1,44
 319 599 319 599 291 599 c 256,45,46
 263 599 263 599 244.5 581 c 128,-1,47
 226 563 226 563 226 536 c 0,48,49
 226 514 226 514 239 490 c 128,-1,50
 252 466 252 466 284 433 c 1,51,40
 319 453 319 453 337.5 479 c 128,-1,41
EndSplineSet
EndChar
StartChar: parenleft
Encoding: 40 40 268
Width: 632
GlyphClass: 1
Flags: W
LayerCount: 2
Fore
SplineSet
191 45.5 m 128,-1,1
 140 157 140 157 140 273 c 256,2,3
 140 389 140 389 191 500.5 c 128,-1,4
 242 612 242 612 338 708 c 1,5,-1
 498 708 l 1,6,7
 392 608 392 608 334.5 495.5 c 128,-1,8
 277 383 277 383 277 273 c 256,9,10
 277 163 277 163 334.5 50.5 c 128,-1,11
 392 -62 392 -62 498 -162 c 1,12,-1
 338 -162 l 1,13,0
 242 -66 242 -66 191 45.5 c 128,-1,1
EndSplineSet
EndChar
StartChar: comma
Encoding: 44 44 250
Width: 632
GlyphClass: 1
Flags: W
LayerCount: 2
Fore
SplineSet
237.5 26 m 128,-1,1
 215 54 215 54 215 89 c 0,2,3
 215 132 215 132 245 161.5 c 128,-1,4
 275 191 275 191 316 191 c 0,5,6
 359 191 359 191 388 161.5 c 128,-1,7
 417 132 417 132 417 89 c 0,8,9
 417 66 417 66 410 50 c 2,10,-1
 328 -156 l 1,11,-1
 237 -156 l 1,12,-1
 293 -9 l 1,13,0
 260 -2 260 -2 237.5 26 c 128,-1,1
EndSplineSet
EndChar
StartChar: one
Encoding: 49 49 230
Width: 632
GlyphClass: 5
Flags: W
LayerCount: 2
Fore
SplineSet
105 114 m 1,0,-1
 259 114 l 1,1,-1
 259 458 l 1,2,-1
 104 458 l 1,3,-1
 104 571 l 1,4,5
 164 571 164 571 197 577.5 c 128,-1,6
 230 584 230 584 252.5 604.5 c 128,-1,7
 275 625 275 625 292 668 c 1,8,-1
 398 668 l 1,9,-1
 398 114 l 1,10,-1
 530 114 l 1,11,-1
 530 0 l 1,12,-1
 105 0 l 1,13,-1
 105 114 l 1,0,-1
EndSplineSet
Substitution2: "'sups' Superscript in Latin lookup 6 subtable" uni00B9
AlternateSubs2: "'aalt' Access All Alternates in Latin lookup 0 subtable" uni00B9
EndChar
StartChar: two
Encoding: 50 50 231
Width: 632
GlyphClass: 5
Flags: W
LayerCount: 2
Fore
SplineSet
335 327.5 m 128,-1,1
 417 413 417 413 417 486 c 0,2,3
 417 527 417 527 390 551 c 128,-1,4
 363 575 363 575 318 575 c 0,5,6
 280 575 280 575 250.5 554 c 128,-1,7
 221 533 221 533 210 487 c 1,8,-1
 82 533 l 1,9,10
 107 603 107 603 171.5 641.5 c 128,-1,11
 236 680 236 680 325 680 c 0,12,13
 428 680 428 680 493 628.5 c 128,-1,14
 558 577 558 577 558 486 c 0,15,16
 558 386 558 386 478.5 295.5 c 128,-1,17
 399 205 399 205 247 115 c 1,18,-1
 567 115 l 1,19,-1
 567 0 l 1,20,-1
 66 0 l 1,21,-1
 66 115 l 1,22,0
 253 242 253 242 335 327.5 c 128,-1,1
EndSplineSet
Substitution2: "'sups' Superscript in Latin lookup 6 subtable" uni00B2
AlternateSubs2: "'aalt' Access All Alternates in Latin lookup 0 subtable" uni00B2
EndChar
StartChar: three
Encoding: 51 51 232
Width: 632
GlyphClass: 5
Flags: W
LayerCount: 2
Fore
SplineSet
156.5 27.5 m 128,-1,1
 89 67 89 67 61 142 c 1,2,-1
 189 187 l 1,3,4
 201 140 201 140 236 116.5 c 128,-1,5
 271 93 271 93 319 93 c 0,6,7
 369 93 369 93 399.5 119.5 c 128,-1,8
 430 146 430 146 430 191 c 0,9,10
 430 244 430 244 387 270.5 c 128,-1,11
 344 297 344 297 267 297 c 2,12,-1
 242 297 l 1,13,-1
 242 394 l 1,14,-1
 267 394 l 2,15,16
 338 394 338 394 379 420.5 c 128,-1,17
 420 447 420 447 420 492 c 0,18,19
 420 531 420 531 388.5 553 c 128,-1,20
 357 575 357 575 312 575 c 0,21,22
 268 575 268 575 236 553.5 c 128,-1,23
 204 532 204 532 195 488 c 1,24,-1
 69 533 l 1,25,26
 96 605 96 605 163.5 642.5 c 128,-1,27
 231 680 231 680 319 680 c 0,28,29
 382 680 382 680 437 660.5 c 128,-1,30
 492 641 492 641 526.5 601.5 c 128,-1,31
 561 562 561 562 561 504 c 0,32,33
 561 448 561 448 531 409 c 128,-1,34
 501 370 501 370 450 350 c 1,35,36
 510 332 510 332 541.5 289.5 c 128,-1,37
 573 247 573 247 573 193 c 0,38,39
 573 128 573 128 537.5 81.5 c 128,-1,40
 502 35 502 35 443 11.5 c 128,-1,41
 384 -12 384 -12 315 -12 c 0,42,0
 224 -12 224 -12 156.5 27.5 c 128,-1,1
EndSplineSet
Substitution2: "'sups' Superscript in Latin lookup 6 subtable" uni00B3
AlternateSubs2: "'aalt' Access All Alternates in Latin lookup 0 subtable" uni00B3
EndChar
StartChar: seven
Encoding: 55 55 236
Width: 632
GlyphClass: 1
Flags: W
LayerCount: 2
Fore
SplineSet
414 553 m 1,0,-1
 71 553 l 1,1,-1
 71 668 l 1,2,-1
 562 668 l 1,3,-1
 562 553 l 1,4,-1
 301 0 l 1,5,-1
 141 0 l 1,6,-1
 414 553 l 1,0,-1
EndSplineSet
EndChar
StartChar: eight
Encoding: 56 56 237
Width: 632
GlyphClass: 1
Flags: W
LayerCount: 2
Fore
SplineSet
176.5 14 m 128,-1,1
 115 40 115 40 80.5 89 c 128,-1,2
 46 138 46 138 46 205 c 0,3,4
 46 262 46 262 77.5 306.5 c 128,-1,5
 109 351 109 351 165 377 c 1,6,7
 125 425 125 425 125 490 c 0,8,9
 125 542 125 542 149.5 586 c 128,-1,10
 174 630 174 630 217.5 655.5 c 128,-1,11
 261 681 261 681 316 681 c 256,12,13
 371 681 371 681 414.5 655.5 c 128,-1,14
 458 630 458 630 482 586 c 128,-1,15
 506 542 506 542 506 490 c 0,16,17
 506 424 506 424 467 377 c 1,18,19
 522 351 522 351 553.5 306 c 128,-1,20
 585 261 585 261 585 204 c 0,21,22
 585 137 585 137 550.5 88.5 c 128,-1,23
 516 40 516 40 455 14 c 128,-1,24
 394 -12 394 -12 316 -12 c 256,25,0
 238 -12 238 -12 176.5 14 c 128,-1,1
406 133 m 128,-1,27
 441 161 441 161 441 204 c 256,28,29
 441 247 441 247 406 273 c 128,-1,30
 371 299 371 299 316 299 c 0,31,32
 259 299 259 299 224.5 273 c 128,-1,33
 190 247 190 247 190 204 c 0,34,35
 190 160 190 160 225 132.5 c 128,-1,36
 260 105 260 105 316 105 c 0,37,26
 371 105 371 105 406 133 c 128,-1,27
368.5 434.5 m 128,-1,39
 390 457 390 457 390 489 c 256,40,41
 390 521 390 521 368.5 543 c 128,-1,42
 347 565 347 565 316 565 c 0,43,44
 284 565 284 565 262 543 c 128,-1,45
 240 521 240 521 240 489 c 256,46,47
 240 457 240 457 262 434.5 c 128,-1,48
 284 412 284 412 316 412 c 0,49,38
 347 412 347 412 368.5 434.5 c 128,-1,39
EndSplineSet
EndChar
StartChar: equal
Encoding: 61 61 315
Width: 632
GlyphClass: 1
Flags: W
LayerCount: 2
Fore
SplineSet
61 404 m 1,0,-1
 571 404 l 1,1,-1
 571 285 l 1,2,-1
 61 285 l 1,3,-1
 61 404 l 1,0,-1
61 219 m 1,4,-1
 571 219 l 1,5,-1
 571 101 l 1,6,-1
 61 101 l 1,7,-1
 61 219 l 1,4,-1
EndSplineSet
EndChar
StartChar: at
Encoding: 64 64 288
Width: 632
GlyphClass: 1
Flags: W
LayerCount: 2
Fore
SplineSet
161 -57 m 128,-1,1
 90 -13 90 -13 50.5 67.5 c 128,-1,2
 11 148 11 148 11 252 c 256,3,4
 11 356 11 356 50.5 437 c 128,-1,5
 90 518 90 518 161 563.5 c 128,-1,6
 232 609 232 609 323 609 c 0,7,8
 407 609 407 609 475 569.5 c 128,-1,9
 543 530 543 530 582 456.5 c 128,-1,10
 621 383 621 383 621 285 c 0,11,12
 621 214 621 214 600.5 166.5 c 128,-1,13
 580 119 580 119 548 96 c 128,-1,14
 516 73 516 73 481 73 c 0,15,16
 451 73 451 73 425.5 89.5 c 128,-1,17
 400 106 400 106 387 133 c 1,18,19
 371 103 371 103 344.5 89 c 128,-1,20
 318 75 318 75 288 75 c 0,21,22
 257 75 257 75 226 94.5 c 128,-1,23
 195 114 195 114 175 151 c 128,-1,24
 155 188 155 188 155 239 c 0,25,26
 155 341 155 341 207 389.5 c 128,-1,27
 259 438 259 438 334 438 c 0,28,29
 391 438 391 438 451 418 c 1,30,-1
 451 222 l 2,31,32
 451 182 451 182 462.5 165 c 128,-1,33
 474 148 474 148 492 148 c 0,34,35
 518 148 518 148 532.5 185 c 128,-1,36
 547 222 547 222 547 289 c 0,37,38
 547 365 547 365 518.5 422 c 128,-1,39
 490 479 490 479 438.5 509.5 c 128,-1,40
 387 540 387 540 321 540 c 0,41,42
 250 540 250 540 197 503.5 c 128,-1,43
 144 467 144 467 116 402 c 128,-1,44
 88 337 88 337 88 254 c 0,45,46
 88 168 88 168 118 103.5 c 128,-1,47
 148 39 148 39 201.5 3.5 c 128,-1,48
 255 -32 255 -32 324 -32 c 0,49,50
 383 -32 383 -32 438 4 c 1,51,-1
 438 -73 l 1,52,53
 384 -101 384 -101 322 -101 c 0,54,0
 232 -101 232 -101 161 -57 c 128,-1,1
351.5 183.5 m 128,-1,56
 372 208 372 208 372 248 c 2,57,-1
 372 353 l 1,58,59
 354 358 354 358 333 358 c 0,60,61
 295 358 295 358 269.5 333 c 128,-1,62
 244 308 244 308 244 245 c 0,63,64
 244 204 244 204 261.5 181.5 c 128,-1,65
 279 159 279 159 304 159 c 0,66,55
 331 159 331 159 351.5 183.5 c 128,-1,56
EndSplineSet
EndChar
StartChar: A
Encoding: 65 65 2
Width: 632
GlyphClass: 2
Flags: W
AnchorPoint: "Anchor-2" 600 10 basechar 0
AnchorPoint: "Anchor-1" 316 668 basechar 0
AnchorPoint: "Anchor-0" 316 0 basechar 0
LayerCount: 2
Fore
SplineSet
239 668 m 1,0,-1
 393 668 l 1,1,-1
 600 0 l 1,2,-1
 465 0 l 1,3,-1
 428 126 l 1,4,-1
 198 126 l 1,5,-1
 161 0 l 1,6,-1
 32 0 l 1,7,-1
 239 668 l 1,0,-1
396 243 m 1,8,-1
 315 520 l 1,9,-1
 311 520 l 1,10,-1
 229 243 l 1,11,-1
 396 243 l 1,8,-1
EndSplineSet
Substitution2: "Single Substitution lookup 14 subtable" ordfeminine
AlternateSubs2: "'aalt' Access All Alternates in Latin lookup 0 subtable" ordfeminine
EndChar
StartChar: B
Encoding: 66 66 13
Width: 632
GlyphClass: 2
Flags: W
AnchorPoint: "Anchor-1" 325 668 basechar 0
AnchorPoint: "Anchor-0" 325 0 basechar 0
LayerCount: 2
Fore
SplineSet
77 668 m 1,0,-1
 338 668 l 2,1,2
 448 668 448 668 506 624 c 128,-1,3
 564 580 564 580 564 495 c 0,4,5
 564 447 564 447 542 410.5 c 128,-1,6
 520 374 520 374 478 354 c 1,7,8
 528 337 528 337 559 297.5 c 128,-1,9
 590 258 590 258 590 195 c 0,10,11
 590 98 590 98 526.5 49 c 128,-1,12
 463 0 463 0 350 0 c 2,13,-1
 77 0 l 1,14,-1
 77 668 l 1,0,-1
425.5 138 m 128,-1,16
 452 161 452 161 452 202 c 0,17,18
 452 241 452 241 425.5 263 c 128,-1,19
 399 285 399 285 348 285 c 2,20,-1
 210 285 l 1,21,-1
 210 115 l 1,22,-1
 349 115 l 2,23,15
 399 115 399 115 425.5 138 c 128,-1,16
406 421 m 128,-1,25
 429 442 429 442 429 477 c 0,26,27
 429 511 429 511 405.5 532 c 128,-1,28
 382 553 382 553 339 553 c 2,29,-1
 210 553 l 1,30,-1
 210 400 l 1,31,-1
 341 400 l 2,32,24
 383 400 383 400 406 421 c 128,-1,25
EndSplineSet
EndChar
StartChar: D
Encoding: 68 68 19
Width: 632
GlyphClass: 2
Flags: W
AnchorPoint: "Anchor-1" 312 668 basechar 0
AnchorPoint: "Anchor-0" 323 0 basechar 0
LayerCount: 2
Fore
SplineSet
65 668 m 1,0,-1
 254 668 l 2,1,2
 412 668 412 668 504 590 c 128,-1,3
 596 512 596 512 596 334 c 256,4,5
 596 156 596 156 504 78 c 128,-1,6
 412 0 412 0 254 0 c 2,7,-1
 65 0 l 1,8,-1
 65 668 l 1,0,-1
357 134.5 m 128,-1,10
 402 151 402 151 430 198.5 c 128,-1,11
 458 246 458 246 458 334 c 256,12,13
 458 422 458 422 430 470 c 128,-1,14
 402 518 402 518 357 534.5 c 128,-1,15
 312 551 312 551 249 551 c 2,16,-1
 199 551 l 1,17,-1
 199 118 l 1,18,-1
 249 118 l 2,19,9
 312 118 312 118 357 134.5 c 128,-1,10
EndSplineSet
EndChar
StartChar: E
Encoding: 69 69 23
Width: 632
GlyphClass: 2
Flags: W
AnchorPoint: "Anchor-2" 559 10 basechar 0
AnchorPoint: "Anchor-1" 331 668 basechar 0
AnchorPoint: "Anchor-0" 318 0 basechar 0
LayerCount: 2
Fore
SplineSet
99 668 m 1,0,-1
 555 668 l 1,1,-1
 555 540 l 1,2,-1
 244 540 l 1,3,-1
 244 407 l 1,4,-1
 440 407 l 1,5,-1
 440 280 l 1,6,-1
 244 280 l 1,7,-1
 244 128 l 1,8,-1
 559 128 l 1,9,-1
 559 0 l 1,10,-1
 99 0 l 1,11,-1
 99 668 l 1,0,-1
EndSplineSet
EndChar
StartChar: G
Encoding: 71 71 33
Width: 632
GlyphClass: 2
Flags: W
AnchorPoint: "Anchor-1" 311 668 basechar 0
AnchorPoint: "Anchor-0" 311 0 basechar 0
LayerCount: 2
Fore
SplineSet
163.5 30.5 m 128,-1,1
 103 73 103 73 70 152 c 128,-1,2
 37 231 37 231 37 336 c 0,3,4
 37 440 37 440 73 517.5 c 128,-1,5
 109 595 109 595 174 637.5 c 128,-1,6
 239 680 239 680 324 680 c 0,7,8
 403 680 403 680 466.5 641 c 128,-1,9
 530 602 530 602 558 528 c 1,10,-1
 444 486 l 1,11,12
 429 521 429 521 400 542.5 c 128,-1,13
 371 564 371 564 327 564 c 0,14,15
 259 564 259 564 217 505.5 c 128,-1,16
 175 447 175 447 175 336 c 0,17,18
 175 223 175 223 217 163.5 c 128,-1,19
 259 104 259 104 333 104 c 0,20,21
 385 104 385 104 421.5 136.5 c 128,-1,22
 458 169 458 169 458 240 c 2,23,-1
 458 262 l 1,24,-1
 323 262 l 1,25,-1
 323 372 l 1,26,-1
 580 372 l 1,27,-1
 580 0 l 1,28,-1
 498 0 l 1,29,-1
 478 77 l 1,30,31
 452 33 452 33 406 10.5 c 128,-1,32
 360 -12 360 -12 306 -12 c 0,33,0
 224 -12 224 -12 163.5 30.5 c 128,-1,1
EndSplineSet
EndChar
StartChar: I
Encoding: 73 73 39
Width: 632
GlyphClass: 2
Flags: W
AnchorPoint: "Anchor-2" 516 10 basechar 0
AnchorPoint: "Anchor-1" 316 668 basechar 0
AnchorPoint: "Anchor-0" 316 0 basechar 0
LayerCount: 2
Fore
SplineSet
116 106 m 1,0,-1
 243 106 l 1,1,-1
 243 562 l 1,2,-1
 116 562 l 1,3,-1
 116 668 l 1,4,-1
 516 668 l 1,5,-1
 516 562 l 1,6,-1
 389 562 l 1,7,-1
 389 106 l 1,8,-1
 516 106 l 1,9,-1
 516 0 l 1,10,-1
 116 0 l 1,11,-1
 116 106 l 1,0,-1
EndSplineSet
EndChar
StartChar: K
Encoding: 75 75 50
Width: 632
GlyphClass: 2
Flags: W
AnchorPoint: "Anchor-1" 321 668 basechar 0
AnchorPoint: "Anchor-0" 309 0 basechar 0
LayerCount: 2
Fore
SplineSet
66 668 m 1,0,-1
 199 668 l 1,1,-1
 199 383 l 1,2,-1
 441 668 l 1,3,-1
 598 668 l 1,4,-1
 358 386 l 1,5,-1
 613 0 l 1,6,-1
 453 0 l 1,7,-1
 269 280 l 1,8,-1
 199 200 l 1,9,-1
 199 0 l 1,10,-1
 66 0 l 1,11,-1
 66 668 l 1,0,-1
EndSplineSet
EndChar
StartChar: P
Encoding: 80 80 71
Width: 632
GlyphClass: 2
Flags: W
AnchorPoint: "Anchor-1" 326 668 basechar 0
AnchorPoint: "Anchor-0" 326 0 basechar 0
LayerCount: 2
Fore
SplineSet
78 668 m 1,0,-1
 346 668 l 2,1,2
 457 668 457 668 528 614 c 128,-1,3
 599 560 599 560 599 453 c 0,4,5
 599 345 599 345 528 291 c 128,-1,6
 457 237 457 237 346 237 c 2,7,-1
 211 237 l 1,8,-1
 211 0 l 1,9,-1
 78 0 l 1,10,-1
 78 668 l 1,0,-1
428.5 376.5 m 128,-1,12
 461 401 461 401 461 453 c 0,13,14
 461 504 461 504 428.5 528.5 c 128,-1,15
 396 553 396 553 341 553 c 2,16,-1
 211 553 l 1,17,-1
 211 352 l 1,18,-1
 341 352 l 2,19,11
 396 352 396 352 428.5 376.5 c 128,-1,12
EndSplineSet
EndChar
StartChar: Q
Encoding: 81 81 73
Width: 632
GlyphClass: 1
Flags: W
LayerCount: 2
Fore
SplineSet
167 30.5 m 128,-1,1
 104 73 104 73 70.5 151.5 c 128,-1,2
 37 230 37 230 37 334 c 256,3,4
 37 438 37 438 70.5 516.5 c 128,-1,5
 104 595 104 595 167 637.5 c 128,-1,6
 230 680 230 680 316 680 c 256,7,8
 402 680 402 680 465 637.5 c 128,-1,9
 528 595 528 595 561.5 516.5 c 128,-1,10
 595 438 595 438 595 334 c 0,11,12
 595 222 595 222 555 139 c 1,13,-1
 632 66 l 1,14,-1
 556 -14 l 1,15,-1
 488 49 l 1,16,17
 419 -12 419 -12 316 -12 c 0,18,0
 230 -12 230 -12 167 30.5 c 128,-1,1
396 137 m 1,20,-1
 275 251 l 1,21,-1
 351 330 l 1,22,-1
 442 244 l 1,23,24
 453 280 453 280 453 334 c 0,25,26
 453 446 453 446 416.5 505 c 128,-1,27
 380 564 380 564 316 564 c 256,28,29
 252 564 252 564 215.5 505 c 128,-1,30
 179 446 179 446 179 334 c 256,31,32
 179 222 179 222 215.5 163 c 128,-1,33
 252 104 252 104 316 104 c 0,34,19
 363 104 363 104 396 137 c 1,20,-1
EndSplineSet
EndChar
StartChar: S
Encoding: 83 83 77
Width: 632
GlyphClass: 2
Flags: W
AnchorPoint: "Anchor-1" 316 668 basechar 0
AnchorPoint: "Anchor-0" 316 0 basechar 0
LayerCount: 2
Fore
SplineSet
148.5 32 m 128,-1,1
 76 76 76 76 46 155 c 1,2,-1
 179 203 l 1,3,4
 191 158 191 158 231 131.5 c 128,-1,5
 271 105 271 105 322 105 c 0,6,7
 369 105 369 105 404 127 c 128,-1,8
 439 149 439 149 439 190 c 0,9,10
 439 224 439 224 411.5 243.5 c 128,-1,11
 384 263 384 263 320 277 c 2,12,-1
 258 290 l 2,13,14
 62 328 62 328 62 481 c 0,15,16
 62 539 62 539 97.5 584.5 c 128,-1,17
 133 630 133 630 193 655 c 128,-1,18
 253 680 253 680 324 680 c 0,19,20
 403 680 403 680 470 645 c 128,-1,21
 537 610 537 610 567 539 c 1,22,-1
 435 490 l 1,23,24
 420 525 420 525 387.5 544 c 128,-1,25
 355 563 355 563 314 563 c 0,26,27
 268 563 268 563 238 543 c 128,-1,28
 208 523 208 523 208 487 c 0,29,30
 208 460 208 460 229 442 c 128,-1,31
 250 424 250 424 289 416 c 2,32,-1
 361 400 l 2,33,34
 471 377 471 377 527.5 333.5 c 128,-1,35
 584 290 584 290 584 207 c 0,36,37
 584 142 584 142 548 92 c 128,-1,38
 512 42 512 42 451 15 c 128,-1,39
 390 -12 390 -12 319 -12 c 0,40,0
 221 -12 221 -12 148.5 32 c 128,-1,1
EndSplineSet
EndChar
StartChar: T
Encoding: 84 84 83
Width: 632
GlyphClass: 2
Flags: W
AnchorPoint: "Anchor-1" 316 668 basechar 0
AnchorPoint: "Anchor-0" 316 0 basechar 0
LayerCount: 2
Fore
SplineSet
243 540 m 1,0,-1
 52 540 l 1,1,-1
 52 668 l 1,2,-1
 580 668 l 1,3,-1
 580 540 l 1,4,-1
 389 540 l 1,5,-1
 389 0 l 1,6,-1
 243 0 l 1,7,-1
 243 540 l 1,0,-1
EndSplineSet
EndChar
StartChar: V
Encoding: 86 86 96
Width: 632
GlyphClass: 2
Flags: W
AnchorPoint: "Anchor-1" 316 668 basechar 0
AnchorPoint: "Anchor-0" 316 0 basechar 0
LayerCount: 2
Fore
SplineSet
35 668 m 1,0,-1
 177 668 l 1,1,-1
 318 150 l 1,2,-1
 322 150 l 1,3,-1
 463 668 l 1,4,-1
 597 668 l 1,5,-1
 393 0 l 1,6,-1
 239 0 l 1,7,-1
 35 668 l 1,0,-1
EndSplineSet
EndChar
StartChar: W
Encoding: 87 87 97
Width: 632
GlyphClass: 2
Flags: W
AnchorPoint: "Anchor-1" 316 668 basechar 0
AnchorPoint: "Anchor-0" 317 0 basechar 0
LayerCount: 2
Fore
SplineSet
8 668 m 1,0,-1
 121 668 l 1,1,-1
 181 181 l 1,2,-1
 185 181 l 1,3,-1
 253 668 l 1,4,-1
 379 668 l 1,5,-1
 449 181 l 1,6,-1
 453 181 l 1,7,-1
 511 668 l 1,8,-1
 624 668 l 1,9,-1
 516 0 l 1,10,-1
 386 0 l 1,11,-1
 318 489 l 1,12,-1
 314 489 l 1,13,-1
 247 0 l 1,14,-1
 117 0 l 1,15,-1
 8 668 l 1,0,-1
EndSplineSet
EndChar
StartChar: b
Encoding: 98 98 123
Width: 632
GlyphClass: 2
Flags: W
AnchorPoint: "Anchor-1" 313 496 basechar 0
AnchorPoint: "Anchor-0" 313 0 basechar 0
LayerCount: 2
Fore
SplineSet
276.5 9.5 m 128,-1,1
 233 31 233 31 209 70 c 1,2,-1
 192 0 l 1,3,-1
 69 0 l 1,4,-1
 69 708 l 1,5,-1
 210 708 l 1,6,-1
 210 425 l 1,7,8
 234 465 234 465 278 487.5 c 128,-1,9
 322 510 322 510 366 510 c 0,10,11
 432 510 432 510 482.5 479 c 128,-1,12
 533 448 533 448 561 390 c 128,-1,13
 589 332 589 332 589 252 c 256,14,15
 589 172 589 172 561 112 c 128,-1,16
 533 52 533 52 482.5 20 c 128,-1,17
 432 -12 432 -12 366 -12 c 0,18,0
 320 -12 320 -12 276.5 9.5 c 128,-1,1
410.5 139.5 m 128,-1,20
 445 181 445 181 445 252 c 0,21,22
 445 322 445 322 410.5 361.5 c 128,-1,23
 376 401 376 401 324 401 c 0,24,25
 271 401 271 401 237 362.5 c 128,-1,26
 203 324 203 324 203 249 c 0,27,28
 203 173 203 173 236.5 135.5 c 128,-1,29
 270 98 270 98 324 98 c 0,30,19
 376 98 376 98 410.5 139.5 c 128,-1,20
EndSplineSet
EndChar
StartChar: d
Encoding: 100 100 129
Width: 632
GlyphClass: 2
Flags: W
AnchorPoint: "Anchor-3" 576 496 basechar 0
AnchorPoint: "Anchor-1" 320 796 basechar 0
AnchorPoint: "Anchor-0" 320 0 basechar 0
LayerCount: 2
Fore
SplineSet
149.5 20.5 m 128,-1,1
 99 53 99 53 71 112.5 c 128,-1,2
 43 172 43 172 43 252 c 256,3,4
 43 332 43 332 71 390 c 128,-1,5
 99 448 99 448 149.5 479 c 128,-1,6
 200 510 200 510 266 510 c 0,7,8
 311 510 311 510 354.5 487.5 c 128,-1,9
 398 465 398 465 422 425 c 1,10,-1
 422 708 l 1,11,-1
 563 708 l 1,12,-1
 563 192 l 2,13,14
 563 85 563 85 580 0 c 1,15,-1
 446 0 l 1,16,-1
 426 68 l 1,17,18
 395 28 395 28 353 8 c 128,-1,19
 311 -12 311 -12 266 -12 c 0,20,0
 200 -12 200 -12 149.5 20.5 c 128,-1,1
395.5 135.5 m 128,-1,22
 429 173 429 173 429 249 c 0,23,24
 429 324 429 324 395.5 362.5 c 128,-1,25
 362 401 362 401 309 401 c 256,26,27
 256 401 256 401 221.5 361.5 c 128,-1,28
 187 322 187 322 187 252 c 0,29,30
 187 181 187 181 221.5 139.5 c 128,-1,31
 256 98 256 98 309 98 c 256,32,21
 362 98 362 98 395.5 135.5 c 128,-1,22
EndSplineSet
EndChar
StartChar: g
Encoding: 103 103 143
Width: 632
GlyphClass: 2
Flags: W
AnchorPoint: "Anchor-1" 318 496 basechar 0
AnchorPoint: "Anchor-0" 320 -251 basechar 0
LayerCount: 2
Fore
SplineSet
183 -174.5 m 128,-1,1
 123 -148 123 -148 93 -88 c 1,2,-1
 206 -39 l 1,3,4
 236 -94 236 -94 317 -94 c 0,5,6
 364 -94 364 -94 394.5 -70 c 128,-1,7
 425 -46 425 -46 425 7 c 2,8,-1
 425 96 l 1,9,10
 394 57 394 57 351.5 37 c 128,-1,11
 309 17 309 17 263 17 c 0,12,13
 206 17 206 17 156 46.5 c 128,-1,14
 106 76 106 76 76 131 c 128,-1,15
 46 186 46 186 46 259 c 0,16,17
 46 341 46 341 75.5 397.5 c 128,-1,18
 105 454 105 454 153.5 482 c 128,-1,19
 202 510 202 510 258 510 c 0,20,21
 308 510 308 510 353 487.5 c 128,-1,22
 398 465 398 465 425 425 c 1,23,-1
 444 496 l 1,24,-1
 565 496 l 1,25,-1
 565 32 l 2,26,27
 565 -87 565 -87 498.5 -144 c 128,-1,28
 432 -201 432 -201 314 -201 c 0,29,0
 243 -201 243 -201 183 -174.5 c 128,-1,1
398.5 159 m 128,-1,31
 431 192 431 192 431 262 c 256,32,33
 431 332 431 332 398 366.5 c 128,-1,34
 365 401 365 401 311 401 c 0,35,36
 259 401 259 401 225 366.5 c 128,-1,37
 191 332 191 332 191 266 c 0,38,39
 191 199 191 199 225 162.5 c 128,-1,40
 259 126 259 126 311 126 c 0,41,30
 366 126 366 126 398.5 159 c 128,-1,31
EndSplineSet
EndChar
StartChar: m
Encoding: 109 109 167
Width: 632
GlyphClass: 2
Flags: W
AnchorPoint: "Anchor-1" 317 496 basechar 0
AnchorPoint: "Anchor-0" 318 0 basechar 0
LayerCount: 2
Fore
SplineSet
48 496 m 1,0,-1
 143 496 l 1,1,-1
 156 449 l 1,2,3
 173 476 173 476 200 493 c 128,-1,4
 227 510 227 510 261 510 c 0,5,6
 331 510 331 510 359 451 c 1,7,8
 376 477 376 477 404 493.5 c 128,-1,9
 432 510 432 510 468 510 c 0,10,11
 526 510 526 510 555.5 474 c 128,-1,12
 585 438 585 438 585 376 c 2,13,-1
 585 0 l 1,14,-1
 469 0 l 1,15,-1
 469 334 l 2,16,17
 469 401 469 401 426 401 c 0,18,19
 402 401 402 401 388 379 c 128,-1,20
 374 357 374 357 374 316 c 2,21,-1
 374 0 l 1,22,-1
 259 0 l 1,23,-1
 259 334 l 2,24,25
 259 401 259 401 216 401 c 0,26,27
 192 401 192 401 178 379 c 128,-1,28
 164 357 164 357 164 315 c 2,29,-1
 164 0 l 1,30,-1
 48 0 l 1,31,-1
 48 496 l 1,0,-1
EndSplineSet
EndChar
StartChar: n
Encoding: 110 110 168
Width: 632
GlyphClass: 2
Flags: W
AnchorPoint: "Anchor-1" 317 496 basechar 0
AnchorPoint: "Anchor-0" 315 0 basechar 0
LayerCount: 2
Fore
SplineSet
83 496 m 1,0,-1
 206 496 l 1,1,-1
 223 429 l 1,2,3
 243 460 243 460 285 485 c 128,-1,4
 327 510 327 510 380 510 c 0,5,6
 470 510 470 510 511 461.5 c 128,-1,7
 552 413 552 413 552 319 c 2,8,-1
 552 0 l 1,9,-1
 411 0 l 1,10,-1
 411 289 l 2,11,12
 411 345 411 345 390.5 373 c 128,-1,13
 370 401 370 401 327 401 c 0,14,15
 276 401 276 401 250 364 c 128,-1,16
 224 327 224 327 224 257 c 2,17,-1
 224 0 l 1,18,-1
 83 0 l 1,19,-1
 83 496 l 1,0,-1
EndSplineSet
EndChar
StartChar: o
Encoding: 111 111 173
Width: 632
GlyphClass: 2
Flags: W
AnchorPoint: "Anchor-3" 586 496 basechar 0
AnchorPoint: "Anchor-2" 549 10 basechar 0
AnchorPoint: "Anchor-1" 316 496 basechar 0
AnchorPoint: "Anchor-0" 316 0 basechar 0
LayerCount: 2
Fore
SplineSet
186 17 m 128,-1,1
 126 46 126 46 90 105 c 128,-1,2
 54 164 54 164 54 250 c 256,3,4
 54 336 54 336 90 394.5 c 128,-1,5
 126 453 126 453 186 481.5 c 128,-1,6
 246 510 246 510 316 510 c 256,7,8
 386 510 386 510 446 481.5 c 128,-1,9
 506 453 506 453 542 394.5 c 128,-1,10
 578 336 578 336 578 250 c 256,11,12
 578 164 578 164 542 105 c 128,-1,13
 506 46 506 46 446 17 c 128,-1,14
 386 -12 386 -12 316 -12 c 256,15,0
 246 -12 246 -12 186 17 c 128,-1,1
402 136 m 128,-1,17
 435 175 435 175 435 250 c 0,18,19
 435 324 435 324 401.5 362.5 c 128,-1,20
 368 401 368 401 316 401 c 256,21,22
 264 401 264 401 230.5 362.5 c 128,-1,23
 197 324 197 324 197 250 c 0,24,25
 197 175 197 175 230 136 c 128,-1,26
 263 97 263 97 316 97 c 256,27,16
 369 97 369 97 402 136 c 128,-1,17
EndSplineSet
Substitution2: "Single Substitution lookup 14 subtable" ordmasculine
AlternateSubs2: "'aalt' Access All Alternates in Latin lookup 0 subtable" ordmasculine
EndChar
StartChar: q
Encoding: 113 113 184
Width: 632
GlyphClass: 2
Flags: W
AnchorPoint: "Anchor-1" 323 496 basechar 0
AnchorPoint: "Anchor-0" 323 0 basechar 0
LayerCount: 2
Fore
SplineSet
438 -139.5 m 128,-1,1
 399 -105 399 -105 399 -17 c 2,2,-1
 399 73 l 1,3,4
 376 33 376 33 335 10.5 c 128,-1,5
 294 -12 294 -12 248 -12 c 0,6,7
 188 -12 188 -12 141.5 19 c 128,-1,8
 95 50 95 50 69 109 c 128,-1,9
 43 168 43 168 43 248 c 0,10,11
 43 327 43 327 69.5 386.5 c 128,-1,12
 96 446 96 446 143 478 c 128,-1,13
 190 510 190 510 252 510 c 0,14,15
 295 510 295 510 335.5 487.5 c 128,-1,16
 376 465 376 465 399 425 c 1,17,-1
 417 496 l 1,18,-1
 540 496 l 1,19,-1
 540 22 l 2,20,21
 540 -15 540 -15 548.5 -33 c 128,-1,22
 557 -51 557 -51 584 -51 c 0,23,24
 606 -51 606 -51 632 -40 c 1,25,-1
 632 -157 l 1,26,27
 588 -174 588 -174 542 -174 c 0,28,0
 477 -174 477 -174 438 -139.5 c 128,-1,1
375 136 m 128,-1,30
 405 174 405 174 405 249 c 256,31,32
 405 324 405 324 375 362.5 c 128,-1,33
 345 401 345 401 297 401 c 256,34,35
 249 401 249 401 218 361 c 128,-1,36
 187 321 187 321 187 249 c 256,37,38
 187 177 187 177 218 137.5 c 128,-1,39
 249 98 249 98 297 98 c 256,40,29
 345 98 345 98 375 136 c 128,-1,30
EndSplineSet
EndChar
StartChar: s
Encoding: 115 115 188
Width: 632
GlyphClass: 2
Flags: W
AnchorPoint: "Anchor-1" 320 496 basechar 0
AnchorPoint: "Anchor-0" 323 0 basechar 0
LayerCount: 2
Fore
SplineSet
167.5 20.5 m 128,-1,1
 102 53 102 53 76 114 c 1,2,-1
 195 158 l 1,3,4
 205 126 205 126 239.5 108 c 128,-1,5
 274 90 274 90 323 90 c 0,6,7
 366 90 366 90 394.5 104 c 128,-1,8
 423 118 423 118 423 143 c 0,9,10
 423 163 423 163 404.5 174.5 c 128,-1,11
 386 186 386 186 341 194 c 2,12,-1
 253 211 l 2,13,14
 178 224 178 224 136 259.5 c 128,-1,15
 94 295 94 295 94 352 c 0,16,17
 94 402 94 402 124.5 437.5 c 128,-1,18
 155 473 155 473 206.5 491.5 c 128,-1,19
 258 510 258 510 319 510 c 0,20,21
 397 510 397 510 456 482.5 c 128,-1,22
 515 455 515 455 541 397 c 1,23,-1
 422 353 l 1,24,25
 411 381 411 381 384 395 c 128,-1,26
 357 409 357 409 317 409 c 0,27,28
 273 409 273 409 250 395.5 c 128,-1,29
 227 382 227 382 227 360 c 0,30,31
 227 342 227 342 242 332 c 128,-1,32
 257 322 257 322 293 315 c 2,33,-1
 385 298 l 2,34,35
 477 281 477 281 516.5 248 c 128,-1,36
 556 215 556 215 556 153 c 0,37,38
 556 74 556 74 490.5 31 c 128,-1,39
 425 -12 425 -12 322 -12 c 0,40,0
 233 -12 233 -12 167.5 20.5 c 128,-1,1
EndSplineSet
EndChar
StartChar: t
Encoding: 116 116 194
Width: 632
GlyphClass: 2
Flags: W
AnchorPoint: "Anchor-3" 369 551 basechar 0
AnchorPoint: "Anchor-1" 287 496 basechar 0
AnchorPoint: "Anchor-0" 326 0 basechar 0
LayerCount: 2
Fore
SplineSet
261 10.5 m 128,-1,1
 228 21 228 21 213 50 c 128,-1,2
 198 79 198 79 198 137 c 2,3,-1
 198 389 l 1,4,-1
 97 389 l 1,5,-1
 97 496 l 1,6,-1
 198 496 l 1,7,-1
 198 620 l 1,8,-1
 339 620 l 1,9,-1
 339 496 l 1,10,-1
 542 496 l 1,11,-1
 542 389 l 1,12,-1
 339 389 l 1,13,-1
 339 169 l 2,14,15
 339 134 339 134 352 122.5 c 128,-1,16
 365 111 365 111 402 111 c 2,17,-1
 492 111 l 1,18,-1
 492 0 l 1,19,-1
 356 0 l 2,20,0
 294 0 294 0 261 10.5 c 128,-1,1
EndSplineSet
EndChar
StartChar: u
Encoding: 117 117 198
Width: 632
GlyphClass: 2
Flags: W
AnchorPoint: "Anchor-3" 576 496 basechar 0
AnchorPoint: "Anchor-2" 545 10 basechar 0
AnchorPoint: "Anchor-1" 315 496 basechar 0
AnchorPoint: "Anchor-0" 312 0 basechar 0
LayerCount: 2
Fore
SplineSet
123 39 m 128,-1,1
 83 90 83 90 83 194 c 2,2,-1
 83 496 l 1,3,-1
 224 496 l 1,4,-1
 224 230 l 2,5,6
 224 186 224 186 229 158.5 c 128,-1,7
 234 131 234 131 252.5 114 c 128,-1,8
 271 97 271 97 307 97 c 0,9,10
 358 97 358 97 381.5 129.5 c 128,-1,11
 405 162 405 162 405 233 c 2,12,-1
 405 496 l 1,13,-1
 545 496 l 1,14,-1
 545 0 l 1,15,-1
 424 0 l 1,16,-1
 405 72 l 1,17,18
 382 32 382 32 347.5 10 c 128,-1,19
 313 -12 313 -12 258 -12 c 0,20,0
 163 -12 163 -12 123 39 c 128,-1,1
EndSplineSet
EndChar
StartChar: w
Encoding: 119 119 208
Width: 632
GlyphClass: 2
Flags: W
AnchorPoint: "Anchor-1" 318 496 basechar 0
AnchorPoint: "Anchor-0" 317 0 basechar 0
LayerCount: 2
Fore
SplineSet
18 496 m 1,0,-1
 133 496 l 1,1,-1
 199 150 l 1,2,-1
 203 150 l 1,3,-1
 261 496 l 1,4,-1
 374 496 l 1,5,-1
 433 151 l 1,6,-1
 437 151 l 1,7,-1
 501 496 l 1,8,-1
 614 496 l 1,9,-1
 508 0 l 1,10,-1
 382 0 l 1,11,-1
 317 345 l 1,12,-1
 313 345 l 1,13,-1
 250 0 l 1,14,-1
 124 0 l 1,15,-1
 18 496 l 1,0,-1
EndSplineSet
EndChar
StartChar: x
Encoding: 120 120 213
Width: 632
GlyphClass: 2
Flags: W
AnchorPoint: "Anchor-1" 317 496 basechar 0
AnchorPoint: "Anchor-0" 317 0 basechar 0
LayerCount: 2
Fore
SplineSet
239 258 m 1,0,-1
 62 496 l 1,1,-1
 217 496 l 1,2,-1
 315 364 l 1,3,-1
 319 364 l 1,4,-1
 417 496 l 1,5,-1
 570 496 l 1,6,-1
 394 258 l 1,7,-1
 584 0 l 1,8,-1
 430 0 l 1,9,-1
 318 153 l 1,10,-1
 314 153 l 1,11,-1
 202 0 l 1,12,-1
 48 0 l 1,13,-1
 239 258 l 1,0,-1
EndSplineSet
EndChar
StartChar: y
Encoding: 121 121 214
Width: 632
GlyphClass: 2
Flags: W
AnchorPoint: "Anchor-1" 316 496 basechar 0
AnchorPoint: "Anchor-0" 315 0 basechar 0
LayerCount: 2
Fore
SplineSet
78 -58 m 1,0,-1
 152 -58 l 2,1,2
 194 -58 194 -58 212 -50 c 128,-1,3
 230 -42 230 -42 240 -19 c 2,4,-1
 251 6 l 1,5,-1
 50 496 l 1,6,-1
 200 496 l 1,7,-1
 315 170 l 1,8,-1
 319 170 l 1,9,-1
 431 496 l 1,10,-1
 582 496 l 1,11,-1
 372 -15 l 2,12,13
 347 -76 347 -76 325 -106 c 128,-1,14
 303 -136 303 -136 268.5 -149 c 128,-1,15
 234 -162 234 -162 172 -162 c 2,16,-1
 78 -162 l 1,17,-1
 78 -58 l 1,0,-1
EndSplineSet
EndChar
StartChar: z
Encoding: 122 122 219
Width: 632
GlyphClass: 2
Flags: W
AnchorPoint: "Anchor-1" 327 496 basechar 0
AnchorPoint: "Anchor-0" 315 0 basechar 0
LayerCount: 2
Fore
SplineSet
77 112 m 1,0,-1
 364 384 l 1,1,-1
 91 384 l 1,2,-1
 91 496 l 1,3,-1
 551 496 l 1,4,-1
 551 384 l 1,5,-1
 266 112 l 1,6,-1
 565 112 l 1,7,-1
 565 0 l 1,8,-1
 77 0 l 1,9,-1
 77 112 l 1,0,-1
EndSplineSet
EndChar
StartChar: braceright
Encoding: 125 125 271
Width: 632
GlyphClass: 1
Flags: W
LayerCount: 2
Fore
SplineSet
137 -52 m 1,0,-1
 245 -52 l 2,1,2
 276 -52 276 -52 287.5 -43 c 128,-1,3
 299 -34 299 -34 299 -9 c 2,4,-1
 299 137 l 2,5,6
 299 196 299 196 319.5 224.5 c 128,-1,7
 340 253 340 253 390 270 c 1,8,-1
 390 276 l 1,9,10
 340 293 340 293 319.5 321.5 c 128,-1,11
 299 350 299 350 299 409 c 2,12,-1
 299 555 l 2,13,14
 299 580 299 580 287.5 589 c 128,-1,15
 276 598 276 598 245 598 c 2,16,-1
 137 598 l 1,17,-1
 137 708 l 1,18,-1
 268 708 l 2,19,20
 357 708 357 708 394.5 672 c 128,-1,21
 432 636 432 636 432 556 c 2,22,-1
 432 424 l 2,23,24
 432 387 432 387 439.5 367.5 c 128,-1,25
 447 348 447 348 466.5 339.5 c 128,-1,26
 486 331 486 331 523 329 c 1,27,-1
 523 217 l 1,28,29
 486 215 486 215 466.5 206.5 c 128,-1,30
 447 198 447 198 439.5 178.5 c 128,-1,31
 432 159 432 159 432 122 c 2,32,-1
 432 -10 l 2,33,34
 432 -90 432 -90 394.5 -126 c 128,-1,35
 357 -162 357 -162 268 -162 c 2,36,-1
 137 -162 l 1,37,-1
 137 -52 l 1,0,-1
EndSplineSet
EndChar
StartChar: asciitilde
Encoding: 126 126 324
Width: 632
GlyphClass: 1
Flags: W
LayerCount: 2
Fore
SplineSet
121.5 305.5 m 128,-1,1
 151 347 151 347 215 347 c 0,2,3
 243 347 243 347 266.5 338.5 c 128,-1,4
 290 330 290 330 324 312 c 0,5,6
 351 298 351 298 368 291.5 c 128,-1,7
 385 285 385 285 402 285 c 0,8,9
 426 285 426 285 438 304 c 128,-1,10
 450 323 450 323 448 368 c 1,11,-1
 546 334 l 1,12,13
 540 253 540 253 511 212 c 128,-1,14
 482 171 482 171 417 171 c 0,15,16
 390 171 390 171 366.5 179.5 c 128,-1,17
 343 188 343 188 309 205 c 0,18,19
 284 219 284 219 266 226 c 128,-1,20
 248 233 248 233 230 233 c 0,21,22
 206 233 206 233 194 214 c 128,-1,23
 182 195 182 195 184 149 c 1,24,-1
 87 183 l 1,25,0
 92 264 92 264 121.5 305.5 c 128,-1,1
EndSplineSet
EndChar
StartChar: currency
Encoding: 164 164 303
Width: 632
GlyphClass: 1
Flags: W
LayerCount: 2
Fore
SplineSet
73 126 m 1,0,-1
 139 193 l 1,1,2
 97 250 97 250 97 320 c 256,3,4
 97 390 97 390 139 448 c 1,5,-1
 73 514 l 1,6,-1
 122 563 l 1,7,-1
 189 497 l 1,8,9
 249 539 249 539 316 539 c 256,10,11
 383 539 383 539 443 497 c 1,12,-1
 510 563 l 1,13,-1
 559 514 l 1,14,-1
 493 448 l 1,15,16
 535 390 535 390 535 320 c 256,17,18
 535 250 535 250 493 193 c 1,19,-1
 559 126 l 1,20,-1
 510 77 l 1,21,-1
 443 144 l 1,22,23
 385 102 385 102 316 102 c 256,24,25
 247 102 247 102 189 144 c 1,26,-1
 122 77 l 1,27,-1
 73 126 l 1,0,-1
391 244.5 m 128,-1,29
 422 276 422 276 422 320 c 256,30,31
 422 364 422 364 391 396 c 128,-1,32
 360 428 360 428 316 428 c 256,33,34
 272 428 272 428 241 396 c 128,-1,35
 210 364 210 364 210 320 c 256,36,37
 210 276 210 276 241 244.5 c 128,-1,38
 272 213 272 213 316 213 c 256,39,28
 360 213 360 213 391 244.5 c 128,-1,29
EndSplineSet
EndChar
StartChar: section
Encoding: 167 167 291
Width: 632
GlyphClass: 1
Flags: W
LayerCount: 2
Fore
SplineSet
175 -137 m 128,-1,1
 121 -101 121 -101 99 -36 c 1,2,-1
 219 6 l 1,3,4
 237 -65 237 -65 315 -65 c 0,5,6
 350 -65 350 -65 370 -50 c 128,-1,7
 390 -35 390 -35 390 -14 c 0,8,9
 390 4 390 4 373 18.5 c 128,-1,10
 356 33 356 33 308 57 c 2,11,-1
 201 109 l 2,12,13
 127 146 127 146 91.5 187 c 128,-1,14
 56 228 56 228 56 286 c 0,15,16
 56 368 56 368 147 420 c 1,17,18
 125 443 125 443 115.5 465.5 c 128,-1,19
 106 488 106 488 106 514 c 0,20,21
 106 562 106 562 134.5 600 c 128,-1,22
 163 638 163 638 212.5 659 c 128,-1,23
 262 680 262 680 324 680 c 0,24,25
 403 680 403 680 457 644 c 128,-1,26
 511 608 511 608 533 543 c 1,27,-1
 413 501 l 1,28,29
 395 572 395 572 317 572 c 0,30,31
 282 572 282 572 262 557 c 128,-1,32
 242 542 242 542 242 521 c 0,33,34
 242 503 242 503 259 488.5 c 128,-1,35
 276 474 276 474 324 450 c 2,36,-1
 431 398 l 2,37,38
 505 361 505 361 540.5 320 c 128,-1,39
 576 279 576 279 576 221 c 0,40,41
 576 139 576 139 485 87 c 1,42,43
 507 64 507 64 516.5 41.5 c 128,-1,44
 526 19 526 19 526 -7 c 0,45,46
 526 -55 526 -55 497.5 -93 c 128,-1,47
 469 -131 469 -131 419.5 -152 c 128,-1,48
 370 -173 370 -173 308 -173 c 0,49,0
 229 -173 229 -173 175 -137 c 128,-1,1
441 210 m 0,51,52
 441 232 441 232 424.5 248 c 128,-1,53
 408 264 408 264 372 283 c 2,54,-1
 234 352 l 1,55,56
 191 328 191 328 191 297 c 0,57,58
 191 275 191 275 207.5 259 c 128,-1,59
 224 243 224 243 260 224 c 2,60,-1
 398 155 l 1,61,50
 441 179 441 179 441 210 c 0,51,52
EndSplineSet
EndChar
StartChar: copyright
Encoding: 169 169 292
Width: 632
GlyphClass: 1
Flags: W
LayerCount: 2
Fore
SplineSet
163.5 33.5 m 128,-1,1
 96 80 96 80 58 159 c 128,-1,2
 20 238 20 238 20 333 c 256,3,4
 20 428 20 428 58 507 c 128,-1,5
 96 586 96 586 163.5 632.5 c 128,-1,6
 231 679 231 679 316 679 c 256,7,8
 401 679 401 679 468.5 632.5 c 128,-1,9
 536 586 536 586 574 507 c 128,-1,10
 612 428 612 428 612 333 c 256,11,12
 612 238 612 238 574 159 c 128,-1,13
 536 80 536 80 468.5 33.5 c 128,-1,14
 401 -13 401 -13 316 -13 c 256,15,0
 231 -13 231 -13 163.5 33.5 c 128,-1,1
201.5 195 m 128,-1,17
 160 247 160 247 160 335 c 0,18,19
 160 422 160 422 203.5 474 c 128,-1,20
 247 526 247 526 317 526 c 0,21,22
 361 526 361 526 397.5 503 c 128,-1,23
 434 480 434 480 453 433 c 1,24,-1
 378 401 l 1,25,26
 362 446 362 446 321 446 c 0,27,28
 292 446 292 446 271.5 419 c 128,-1,29
 251 392 251 392 251 335 c 256,30,31
 251 278 251 278 271.5 250.5 c 128,-1,32
 292 223 292 223 321 223 c 0,33,34
 361 223 361 223 379 260 c 1,35,-1
 453 228 l 1,36,37
 431 186 431 186 394.5 164.5 c 128,-1,38
 358 143 358 143 316 143 c 0,39,16
 243 143 243 143 201.5 195 c 128,-1,17
435.5 81.5 m 128,-1,41
 489 119 489 119 519.5 185 c 128,-1,42
 550 251 550 251 550 333 c 256,43,44
 550 415 550 415 519.5 481 c 128,-1,45
 489 547 489 547 435.5 584.5 c 128,-1,46
 382 622 382 622 316 622 c 256,47,48
 250 622 250 622 196.5 584.5 c 128,-1,49
 143 547 143 547 112.5 481 c 128,-1,50
 82 415 82 415 82 333 c 256,51,52
 82 251 82 251 112.5 185 c 128,-1,53
 143 119 143 119 196.5 81.5 c 128,-1,54
 250 44 250 44 316 44 c 256,55,40
 382 44 382 44 435.5 81.5 c 128,-1,41
EndSplineSet
EndChar
StartChar: guillemotleft
Encoding: 171 171 280
Width: 632
GlyphClass: 1
Flags: W
LayerCount: 2
Fore
SplineSet
280 250 m 1,0,-1
 428 460 l 1,1,-1
 588 460 l 1,2,-1
 439 250 l 1,3,-1
 588 40 l 1,4,-1
 428 40 l 1,5,-1
 280 250 l 1,0,-1
45 250 m 1,6,-1
 193 460 l 1,7,-1
 353 460 l 1,8,-1
 204 250 l 1,9,-1
 353 40 l 1,10,-1
 193 40 l 1,11,-1
 45 250 l 1,6,-1
EndSplineSet
EndChar
StartChar: registered
Encoding: 174 174 293
Width: 632
GlyphClass: 1
Flags: W
LayerCount: 2
Fore
SplineSet
163.5 33.5 m 128,-1,1
 96 80 96 80 58 159 c 128,-1,2
 20 238 20 238 20 333 c 256,3,4
 20 428 20 428 58 507 c 128,-1,5
 96 586 96 586 163.5 632.5 c 128,-1,6
 231 679 231 679 316 679 c 256,7,8
 401 679 401 679 468.5 632.5 c 128,-1,9
 536 586 536 586 574 507 c 128,-1,10
 612 428 612 428 612 333 c 256,11,12
 612 238 612 238 574 159 c 128,-1,13
 536 80 536 80 468.5 33.5 c 128,-1,14
 401 -13 401 -13 316 -13 c 256,15,0
 231 -13 231 -13 163.5 33.5 c 128,-1,1
435.5 81.5 m 128,-1,17
 489 119 489 119 519.5 185 c 128,-1,18
 550 251 550 251 550 333 c 256,19,20
 550 415 550 415 519.5 481 c 128,-1,21
 489 547 489 547 435.5 584.5 c 128,-1,22
 382 622 382 622 316 622 c 256,23,24
 250 622 250 622 196.5 584.5 c 128,-1,25
 143 547 143 547 112.5 481 c 128,-1,26
 82 415 82 415 82 333 c 256,27,28
 82 251 82 251 112.5 185 c 128,-1,29
 143 119 143 119 196.5 81.5 c 128,-1,30
 250 44 250 44 316 44 c 256,31,16
 382 44 382 44 435.5 81.5 c 128,-1,17
184 529 m 1,32,-1
 313 529 l 2,33,34
 452 529 452 529 452 415 c 0,35,36
 452 333 452 333 376 310 c 1,37,-1
 469 162 l 1,38,-1
 380 162 l 1,39,-1
 296 300 l 1,40,-1
 263 300 l 1,41,-1
 263 162 l 1,42,-1
 184 162 l 1,43,-1
 184 529 l 1,32,-1
368 415 m 0,45,46
 368 439 368 439 352.5 448.5 c 128,-1,47
 337 458 337 458 308 458 c 2,48,-1
 263 458 l 1,49,-1
 263 371 l 1,50,-1
 309 371 l 2,51,44
 368 371 368 371 368 415 c 0,45,46
EndSplineSet
EndChar
StartChar: paragraph
Encoding: 182 182 290
Width: 632
GlyphClass: 1
Flags: W
LayerCount: 2
Fore
SplineSet
118.5 360 m 128,-1,1
 73 410 73 410 73 479 c 0,2,3
 73 531 73 531 100 574.5 c 128,-1,4
 127 618 127 618 177 643 c 128,-1,5
 227 668 227 668 292 668 c 2,6,-1
 564 668 l 1,7,-1
 564 605 l 1,8,-1
 518 605 l 1,9,-1
 518 -162 l 1,10,-1
 430 -162 l 1,11,-1
 430 605 l 1,12,-1
 334 605 l 1,13,-1
 334 -162 l 1,14,-1
 246 -162 l 1,15,-1
 246 295 l 1,16,0
 164 310 164 310 118.5 360 c 128,-1,1
EndSplineSet
EndChar
StartChar: uni00B9
Encoding: 185 185 244
Width: 632
GlyphClass: 1
Flags: W
LayerCount: 2
Fore
SplineSet
320 652 m 1,0,-1
 228 652 l 1,1,-1
 228 727 l 1,2,3
 274 727 274 727 301.5 738 c 128,-1,4
 329 749 329 749 339 779 c 1,5,-1
 414 779 l 1,6,-1
 414 364 l 1,7,-1
 320 364 l 1,8,-1
 320 652 l 1,0,-1
EndSplineSet
EndChar
StartChar: ordmasculine
Encoding: 186 186 224
Width: 632
GlyphClass: 1
Flags: W
LayerCount: 2
Fore
SplineSet
190 381 m 128,-1,1
 139 427 139 427 139 514 c 256,2,3
 139 601 139 601 190 647 c 128,-1,4
 241 693 241 693 317 693 c 0,5,6
 392 693 392 693 442.5 647 c 128,-1,7
 493 601 493 601 493 514 c 256,8,9
 493 427 493 427 442.5 381 c 128,-1,10
 392 335 392 335 317 335 c 0,11,0
 241 335 241 335 190 381 c 128,-1,1
370 440.5 m 128,-1,13
 390 467 390 467 390 514 c 0,14,15
 390 562 390 562 370 588.5 c 128,-1,16
 350 615 350 615 317 615 c 256,17,18
 284 615 284 615 263 588.5 c 128,-1,19
 242 562 242 562 242 514 c 0,20,21
 242 467 242 467 263 440.5 c 128,-1,22
 284 414 284 414 317 414 c 256,23,12
 350 414 350 414 370 440.5 c 128,-1,13
EndSplineSet
EndChar
StartChar: onehalf
Encoding: 189 189 241
Width: 632
GlyphClass: 3
Flags: W
LayerCount: 2
Fore
SplineSet
96 554 m 1,0,-1
 27 554 l 1,1,-1
 27 633 l 1,2,3
 72 632 72 632 90.5 639.5 c 128,-1,4
 109 647 109 647 117 668 c 1,5,-1
 185 668 l 1,6,-1
 185 359 l 1,7,-1
 96 359 l 1,8,-1
 96 554 l 1,0,-1
421 668 m 1,9,-1
 526 668 l 1,10,-1
 165 0 l 1,11,-1
 60 0 l 1,12,-1
 421 668 l 1,9,-1
478.5 161 m 128,-1,14
 513 193 513 193 513 217 c 0,15,16
 513 246 513 246 478 246 c 0,17,18
 447 246 447 246 437 215 c 1,19,-1
 359 238 l 1,20,21
 376 277 376 277 407 295 c 128,-1,22
 438 313 438 313 484 313 c 0,23,24
 537 313 537 313 569.5 289.5 c 128,-1,25
 602 266 602 266 602 226 c 0,26,27
 602 184 602 184 574.5 152.5 c 128,-1,28
 547 121 547 121 486 76 c 1,29,-1
 601 76 l 1,30,-1
 601 0 l 1,31,-1
 350 0 l 1,32,-1
 350 70 l 1,33,13
 444 129 444 129 478.5 161 c 128,-1,14
EndSplineSet
Ligature2: "'frac' Diagonal Fractions in Latin lookup 7 subtable" one slash two
EndChar
StartChar: AE
Encoding: 198 198 12
Width: 632
GlyphClass: 2
Flags: W
AnchorPoint: "Anchor-1" 341 668 basechar 0
AnchorPoint: "Anchor-0" 341 0 basechar 0
LayerCount: 2
Fore
SplineSet
236 668 m 1,0,-1
 626 668 l 1,1,-1
 626 556 l 1,2,-1
 422 556 l 1,3,-1
 422 399 l 1,4,-1
 541 399 l 1,5,-1
 541 288 l 1,6,-1
 422 288 l 1,7,-1
 422 112 l 1,8,-1
 626 112 l 1,9,-1
 626 0 l 1,10,-1
 309 0 l 1,11,-1
 309 134 l 1,12,-1
 168 134 l 1,13,-1
 124 0 l 1,14,-1
 5 0 l 1,15,-1
 236 668 l 1,0,-1
309 236 m 1,16,-1
 309 550 l 1,17,-1
 305 550 l 1,18,-1
 200 236 l 1,19,-1
 309 236 l 1,16,-1
EndSplineSet
EndChar
StartChar: Ccedilla
Encoding: 199 199 17
Width: 632
GlyphClass: 2
Flags: W
AnchorPoint: "Anchor-1" 339 668 basechar 0
LayerCount: 2
Fore
SplineSet
241 -171 m 1,1,-1
 256 -125 l 1,2,3
 282 -138 282 -138 319 -138 c 0,4,5
 339 -138 339 -138 351 -131 c 128,-1,6
 363 -124 363 -124 363 -110 c 0,7,8
 363 -97 363 -97 352.5 -90 c 128,-1,9
 342 -83 342 -83 325 -83 c 0,10,11
 319 -83 319 -83 305.5 -86 c 128,-1,12
 292 -89 292 -89 288 -89 c 0,13,14
 279 -89 279 -89 274.5 -84 c 128,-1,15
 270 -79 270 -79 270 -71 c 0,16,17
 270 -66 270 -66 274 -58 c 2,18,-1
 303 -10 l 1,19,20
 226 -2 226 -2 169.5 42.5 c 128,-1,21
 113 87 113 87 82.5 161.5 c 128,-1,22
 52 236 52 236 52 334 c 0,23,24
 52 438 52 438 87.5 516 c 128,-1,25
 123 594 123 594 188.5 637 c 128,-1,26
 254 680 254 680 340 680 c 0,27,28
 420 680 420 680 482 638.5 c 128,-1,29
 544 597 544 597 576 522 c 1,30,-1
 462 480 l 1,31,32
 444 522 444 522 413.5 543 c 128,-1,33
 383 564 383 564 343 564 c 0,34,35
 301 564 301 564 267 536.5 c 128,-1,36
 233 509 233 509 213.5 457 c 128,-1,37
 194 405 194 405 194 334 c 0,38,39
 194 261 194 261 214 209 c 128,-1,40
 234 157 234 157 268.5 130.5 c 128,-1,41
 303 104 303 104 347 104 c 0,42,43
 384 104 384 104 416.5 124 c 128,-1,44
 449 144 449 144 468 187 c 1,45,-1
 579 146 l 1,46,47
 547 76 547 76 489.5 35 c 128,-1,48
 432 -6 432 -6 357 -11 c 1,49,-1
 333 -49 l 1,50,51
 347 -46 347 -46 367 -46 c 0,52,53
 400 -46 400 -46 425.5 -61 c 128,-1,54
 451 -76 451 -76 451 -106 c 0,55,56
 451 -145 451 -145 415 -165.5 c 128,-1,57
 379 -186 379 -186 327 -186 c 0,58,0
 279 -186 279 -186 241 -171 c 1,1,-1
EndSplineSet
EndChar
StartChar: Eth
Encoding: 208 208 22
Width: 632
GlyphClass: 1
Flags: W
LayerCount: 2
Fore
SplineSet
65 286 m 1,0,-1
 18 286 l 1,1,-1
 18 405 l 1,2,-1
 65 405 l 1,3,-1
 65 668 l 1,4,-1
 254 668 l 2,5,6
 412 668 412 668 504 590 c 128,-1,7
 596 512 596 512 596 334 c 256,8,9
 596 156 596 156 504 78 c 128,-1,10
 412 0 412 0 254 0 c 2,11,-1
 65 0 l 1,12,-1
 65 286 l 1,0,-1
357 134.5 m 128,-1,14
 402 151 402 151 430 198.5 c 128,-1,15
 458 246 458 246 458 334 c 256,16,17
 458 422 458 422 430 470 c 128,-1,18
 402 518 402 518 357 534.5 c 128,-1,19
 312 551 312 551 249 551 c 2,20,-1
 199 551 l 1,21,-1
 199 405 l 1,22,-1
 318 405 l 1,23,-1
 318 286 l 1,24,-1
 199 286 l 1,25,-1
 199 118 l 1,26,-1
 249 118 l 2,27,13
 312 118 312 118 357 134.5 c 128,-1,14
EndSplineSet
EndChar
StartChar: multiply
Encoding: 215 215 313
Width: 632
GlyphClass: 1
Flags: W
LayerCount: 2
Fore
SplineSet
93 107 m 1,0,-1
 234 248 l 1,1,-1
 91 389 l 1,2,-1
 175 473 l 1,3,-1
 317 329 l 1,4,-1
 458 473 l 1,5,-1
 542 389 l 1,6,-1
 399 248 l 1,7,-1
 539 107 l 1,8,-1
 455 25 l 1,9,-1
 317 165 l 1,10,-1
 178 25 l 1,11,-1
 93 107 l 1,0,-1
EndSplineSet
EndChar
StartChar: Oslash
Encoding: 216 216 68
Width: 632
GlyphClass: 2
Flags: W
AnchorPoint: "Anchor-3" 609 668 basechar 0
AnchorPoint: "Anchor-2" 563 10 basechar 0
AnchorPoint: "Anchor-1" 317 668 basechar 0
AnchorPoint: "Anchor-0" 317 0 basechar 0
LayerCount: 2
Fore
SplineSet
154 42 m 1,1,-1
 116 -11 l 1,2,-1
 60 30 l 1,3,-1
 104 92 l 1,4,5
 71 137 71 137 54 198.5 c 128,-1,6
 37 260 37 260 37 334 c 0,7,8
 37 438 37 438 70.5 516.5 c 128,-1,9
 104 595 104 595 167 637.5 c 128,-1,10
 230 680 230 680 316 680 c 0,11,12
 411 680 411 680 479 626 c 1,13,-1
 515 678 l 1,14,-1
 573 637 l 1,15,-1
 529 575 l 1,16,17
 595 481 595 481 595 334 c 0,18,19
 595 230 595 230 561.5 151.5 c 128,-1,20
 528 73 528 73 465 30.5 c 128,-1,21
 402 -12 402 -12 316 -12 c 0,22,0
 220 -12 220 -12 154 42 c 1,1,-1
416.5 163 m 128,-1,24
 453 222 453 222 453 334 c 0,25,26
 453 397 453 397 439 445 c 1,27,-1
 227 147 l 1,28,29
 262 104 262 104 316 104 c 0,30,23
 380 104 380 104 416.5 163 c 128,-1,24
316 564 m 0,32,33
 252 564 252 564 215.5 505 c 128,-1,34
 179 446 179 446 179 334 c 0,35,36
 179 270 179 270 193 223 c 1,37,-1
 406 521 l 1,38,31
 369 564 369 564 316 564 c 0,32,33
EndSplineSet
EndChar
StartChar: Thorn
Encoding: 222 222 72
Width: 632
GlyphClass: 2
Flags: W
AnchorPoint: "Anchor-1" 319 668 basechar 0
AnchorPoint: "Anchor-0" 319 0 basechar 0
LayerCount: 2
Fore
SplineSet
78 668 m 1,0,-1
 211 668 l 1,1,-1
 211 557 l 1,2,-1
 346 557 l 2,3,4
 456 557 456 557 527.5 503 c 128,-1,5
 599 449 599 449 599 342 c 0,6,7
 599 234 599 234 527.5 179.5 c 128,-1,8
 456 125 456 125 346 125 c 2,9,-1
 211 125 l 1,10,-1
 211 0 l 1,11,-1
 78 0 l 1,12,-1
 78 668 l 1,0,-1
428.5 265.5 m 128,-1,14
 461 290 461 290 461 342 c 0,15,16
 461 393 461 393 428.5 417.5 c 128,-1,17
 396 442 396 442 341 442 c 2,18,-1
 211 442 l 1,19,-1
 211 241 l 1,20,-1
 341 241 l 2,21,13
 396 241 396 241 428.5 265.5 c 128,-1,14
EndSplineSet
EndChar
StartChar: oslash
Encoding: 248 248 179
Width: 632
GlyphClass: 2
Flags: W
AnchorPoint: "Anchor-3" 586 496 basechar 0
AnchorPoint: "Anchor-2" 549 10 basechar 0
AnchorPoint: "Anchor-1" 316 496 basechar 0
AnchorPoint: "Anchor-0" 316 0 basechar 0
LayerCount: 2
Fore
SplineSet
168 28 m 1,1,-1
 122 -24 l 1,2,-1
 70 22 l 1,3,-1
 114 73 l 1,4,5
 85 105 85 105 69.5 149.5 c 128,-1,6
 54 194 54 194 54 250 c 0,7,8
 54 336 54 336 90 394.5 c 128,-1,9
 126 453 126 453 186 481.5 c 128,-1,10
 246 510 246 510 316 510 c 0,11,12
 400 510 400 510 465 470 c 1,13,-1
 509 520 l 1,14,-1
 561 474 l 1,15,-1
 519 426 l 1,16,17
 578 359 578 359 578 250 c 0,18,19
 578 164 578 164 542 105 c 128,-1,20
 506 46 506 46 446 17 c 128,-1,21
 386 -12 386 -12 316 -12 c 0,22,0
 232 -12 232 -12 168 28 c 1,1,-1
402 136 m 128,-1,24
 435 175 435 175 435 250 c 0,25,26
 435 286 435 286 423 317 c 1,27,-1
 247 119 l 1,28,29
 276 97 276 97 316 97 c 0,30,23
 369 97 369 97 402 136 c 128,-1,24
316 401 m 0,32,33
 264 401 264 401 230.5 362.5 c 128,-1,34
 197 324 197 324 197 250 c 0,35,36
 197 214 197 214 209 181 c 1,37,-1
 385 378 l 1,38,31
 358 401 358 401 316 401 c 0,32,33
EndSplineSet
EndChar
StartChar: thorn
Encoding: 254 254 183
Width: 632
GlyphClass: 2
Flags: W
AnchorPoint: "Anchor-1" 315 496 basechar 0
AnchorPoint: "Anchor-0" 315 0 basechar 0
LayerCount: 2
Fore
SplineSet
69 708 m 1,0,-1
 210 708 l 1,1,-1
 210 425 l 1,2,3
 234 465 234 465 278 487.5 c 128,-1,4
 322 510 322 510 366 510 c 0,5,6
 432 510 432 510 482.5 478 c 128,-1,7
 533 446 533 446 561 386 c 128,-1,8
 589 326 589 326 589 247 c 0,9,10
 589 167 589 167 561 108.5 c 128,-1,11
 533 50 533 50 482.5 19 c 128,-1,12
 432 -12 432 -12 366 -12 c 0,13,14
 322 -12 322 -12 277.5 11 c 128,-1,15
 233 34 233 34 210 72 c 1,16,-1
 210 -162 l 1,17,-1
 69 -162 l 1,18,-1
 69 708 l 1,0,-1
410.5 137.5 m 128,-1,20
 445 177 445 177 445 247 c 0,21,22
 445 318 445 318 410.5 359 c 128,-1,23
 376 400 376 400 324 400 c 0,24,25
 270 400 270 400 236.5 363 c 128,-1,26
 203 326 203 326 203 251 c 0,27,28
 203 175 203 175 237 136.5 c 128,-1,29
 271 98 271 98 324 98 c 0,30,19
 376 98 376 98 410.5 137.5 c 128,-1,20
EndSplineSet
EndChar
StartChar: Aogonek
Encoding: 260 260 9
Width: 632
GlyphClass: 2
Flags: W
AnchorPoint: "Anchor-1" 316 668 basechar 0
LayerCount: 2
Fore
SplineSet
239 668 m 1,0,-1
 393 668 l 1,1,-1
 600 0 l 1,2,3
 567 -4 567 -4 537 -24.5 c 128,-1,4
 507 -45 507 -45 507 -68 c 0,5,6
 507 -85 507 -85 519 -93.5 c 128,-1,7
 531 -102 531 -102 550 -102 c 0,8,9
 571 -102 571 -102 600 -93 c 1,10,-1
 600 -165 l 1,11,12
 589 -169 589 -169 566.5 -171.5 c 128,-1,13
 544 -174 544 -174 526 -174 c 0,14,15
 454 -174 454 -174 422 -147.5 c 128,-1,16
 390 -121 390 -121 390 -86 c 0,17,18
 390 -56 390 -56 410.5 -33 c 128,-1,19
 431 -10 431 -10 464 4 c 1,20,-1
 428 126 l 1,21,-1
 198 126 l 1,22,-1
 161 0 l 1,23,-1
 32 0 l 1,24,-1
 239 668 l 1,0,-1
396 243 m 1,25,-1
 315 520 l 1,26,-1
 311 520 l 1,27,-1
 229 243 l 1,28,-1
 396 243 l 1,25,-1
EndSplineSet
EndChar
StartChar: aogonek
Encoding: 261 261 119
Width: 632
GlyphClass: 2
Flags: W
AnchorPoint: "Anchor-1" 315 496 basechar 0
LayerCount: 2
Fore
SplineSet
376 -147.5 m 128,-1,1
 344 -121 344 -121 344 -86 c 0,2,3
 344 -52 344 -52 365 -29.5 c 128,-1,4
 386 -7 386 -7 423 11 c 1,5,-1
 408 64 l 1,6,7
 359 -12 359 -12 236 -12 c 0,8,9
 160 -12 160 -12 111.5 27 c 128,-1,10
 63 66 63 66 63 131 c 0,11,12
 63 218 63 218 147.5 260.5 c 128,-1,13
 232 303 232 303 403 313 c 1,14,-1
 403 326 l 2,15,16
 403 415 403 415 307 415 c 0,17,18
 271 415 271 415 244.5 397.5 c 128,-1,19
 218 380 218 380 210 352 c 1,20,-1
 92 392 l 1,21,22
 116 445 116 445 174.5 477.5 c 128,-1,23
 233 510 233 510 314 510 c 0,24,25
 536 510 536 510 536 312 c 2,26,-1
 536 187 l 2,27,28
 536 130 536 130 541 79.5 c 128,-1,29
 546 29 546 29 554 0 c 1,30,31
 508 -10 508 -10 484 -29 c 128,-1,32
 460 -48 460 -48 460 -69 c 0,33,34
 460 -86 460 -86 473.5 -94 c 128,-1,35
 487 -102 487 -102 507 -102 c 256,36,37
 527 -102 527 -102 554 -93 c 1,38,-1
 554 -165 l 1,39,40
 543 -169 543 -169 520.5 -171.5 c 128,-1,41
 498 -174 498 -174 480 -174 c 0,42,0
 408 -174 408 -174 376 -147.5 c 128,-1,1
372 110 m 128,-1,44
 403 138 403 138 403 202 c 2,45,-1
 403 229 l 1,46,47
 303 223 303 223 254.5 203 c 128,-1,48
 206 183 206 183 206 143 c 0,49,50
 206 116 206 116 227.5 99 c 128,-1,51
 249 82 249 82 285 82 c 0,52,43
 341 82 341 82 372 110 c 128,-1,44
EndSplineSet
EndChar
StartChar: dcaron
Encoding: 271 271 130
Width: 632
GlyphClass: 1
Flags: W
LayerCount: 2
Fore
SplineSet
110 20.5 m 128,-1,1
 64 53 64 53 39 112.5 c 128,-1,2
 14 172 14 172 14 252 c 256,3,4
 14 332 14 332 39.5 390 c 128,-1,5
 65 448 65 448 110.5 479 c 128,-1,6
 156 510 156 510 216 510 c 0,7,8
 253 510 253 510 289 491 c 128,-1,9
 325 472 325 472 349 437 c 1,10,-1
 349 708 l 1,11,-1
 486 708 l 1,12,-1
 486 192 l 2,13,14
 486 87 486 87 501 0 c 1,15,-1
 370 0 l 1,16,-1
 354 61 l 1,17,18
 326 25 326 25 290.5 6.5 c 128,-1,19
 255 -12 255 -12 216 -12 c 0,20,0
 156 -12 156 -12 110 20.5 c 128,-1,1
327.5 135.5 m 128,-1,22
 355 173 355 173 355 249 c 0,23,24
 355 324 355 324 327 362.5 c 128,-1,25
 299 401 299 401 255 401 c 0,26,27
 210 401 210 401 182 362 c 128,-1,28
 154 323 154 323 154 252 c 0,29,30
 154 180 154 180 182 139 c 128,-1,31
 210 98 210 98 255 98 c 256,32,21
 300 98 300 98 327.5 135.5 c 128,-1,22
553.5 704 m 128,-1,34
 567 718 567 718 585 718 c 0,35,36
 604 718 604 718 614.5 706.5 c 128,-1,37
 625 695 625 695 625 675 c 0,38,39
 625 654 625 654 610 617 c 2,40,-1
 576 528 l 1,41,-1
 515 528 l 1,42,-1
 536 661 l 2,43,33
 540 690 540 690 553.5 704 c 128,-1,34
EndSplineSet
EndChar
StartChar: eogonek
Encoding: 281 281 141
Width: 632
GlyphClass: 2
Flags: W
AnchorPoint: "Anchor-1" 261 496 basechar 0
LayerCount: 2
Fore
SplineSet
324 -147.5 m 128,-1,1
 292 -121 292 -121 292 -84 c 0,2,3
 292 -41 292 -41 323 -10 c 1,4,5
 246 -9 246 -9 187 22 c 128,-1,6
 128 53 128 53 95 111.5 c 128,-1,7
 62 170 62 170 62 250 c 0,8,9
 62 327 62 327 97 386.5 c 128,-1,10
 132 446 132 446 192 478 c 128,-1,11
 252 510 252 510 325 510 c 0,12,13
 400 510 400 510 457.5 476 c 128,-1,14
 515 442 515 442 546 381.5 c 128,-1,15
 577 321 577 321 577 243 c 0,16,17
 577 224 577 224 576 214 c 1,18,-1
 199 214 l 1,19,20
 208 154 208 154 244.5 125.5 c 128,-1,21
 281 97 281 97 333 97 c 0,22,23
 400 97 400 97 434 138 c 1,24,-1
 546 97 l 1,25,26
 517 53 517 53 463 20 c 0,27,28
 408 -17 408 -17 408 -61 c 0,29,30
 408 -82 408 -82 421.5 -92 c 128,-1,31
 435 -102 435 -102 456 -102 c 256,32,33
 477 -102 477 -102 502 -93 c 1,34,-1
 502 -164 l 1,35,36
 491 -168 491 -168 468.5 -171 c 128,-1,37
 446 -174 446 -174 428 -174 c 0,38,0
 356 -174 356 -174 324 -147.5 c 128,-1,1
410.5 376 m 128,-1,40
 379 405 379 405 329 405 c 256,41,42
 279 405 279 405 244 379 c 128,-1,43
 209 353 209 353 199 298 c 1,44,-1
 446 298 l 1,45,39
 442 347 442 347 410.5 376 c 128,-1,40
EndSplineSet
EndChar
StartChar: uni0123
Encoding: 291 291 145
Width: 632
GlyphClass: 2
Flags: W
AnchorPoint: "Anchor-1" 332 770 basechar 0
AnchorPoint: "Anchor-0" 320 -251 basechar 0
LayerCount: 2
Fore
SplineSet
183 -174.5 m 128,-1,1
 123 -148 123 -148 93 -88 c 1,2,-1
 206 -39 l 1,3,4
 236 -94 236 -94 317 -94 c 0,5,6
 364 -94 364 -94 394.5 -70 c 128,-1,7
 425 -46 425 -46 425 7 c 2,8,-1
 425 96 l 1,9,10
 394 57 394 57 351.5 37 c 128,-1,11
 309 17 309 17 263 17 c 0,12,13
 206 17 206 17 156 46.5 c 128,-1,14
 106 76 106 76 76 131 c 128,-1,15
 46 186 46 186 46 259 c 0,16,17
 46 341 46 341 75.5 397.5 c 128,-1,18
 105 454 105 454 153.5 482 c 128,-1,19
 202 510 202 510 258 510 c 0,20,21
 308 510 308 510 353 487.5 c 128,-1,22
 398 465 398 465 425 425 c 1,23,-1
 444 496 l 1,24,-1
 565 496 l 1,25,-1
 565 32 l 2,26,27
 565 -87 565 -87 498.5 -144 c 128,-1,28
 432 -201 432 -201 314 -201 c 0,29,0
 243 -201 243 -201 183 -174.5 c 128,-1,1
398.5 159 m 128,-1,31
 431 192 431 192 431 262 c 256,32,33
 431 332 431 332 398 366.5 c 128,-1,34
 365 401 365 401 311 401 c 0,35,36
 259 401 259 401 225 366.5 c 128,-1,37
 191 332 191 332 191 266 c 0,38,39
 191 199 191 199 225 162.5 c 128,-1,40
 259 126 259 126 311 126 c 0,41,30
 366 126 366 126 398.5 159 c 128,-1,31
227 661 m 0,43,44
 227 708 227 708 270 738.5 c 128,-1,45
 313 769 313 769 386 770 c 1,46,-1
 435 728 l 1,47,48
 389 727 389 727 363 710.5 c 128,-1,49
 337 694 337 694 337 666 c 0,50,51
 337 646 337 646 355 629.5 c 128,-1,52
 373 613 373 613 401 606 c 1,53,-1
 305 568 l 1,54,42
 227 602 227 602 227 661 c 0,43,44
EndSplineSet
EndChar
StartChar: Iogonek
Encoding: 302 302 47
Width: 632
GlyphClass: 2
Flags: W
AnchorPoint: "Anchor-1" 316 668 basechar 0
LayerCount: 2
Fore
SplineSet
116 106 m 1,0,-1
 243 106 l 1,1,-1
 243 562 l 1,2,-1
 116 562 l 1,3,-1
 116 668 l 1,4,-1
 516 668 l 1,5,-1
 516 562 l 1,6,-1
 389 562 l 1,7,-1
 389 106 l 1,8,-1
 516 106 l 1,9,-1
 516 0 l 1,10,11
 483 -4 483 -4 452.5 -24.5 c 128,-1,12
 422 -45 422 -45 422 -68 c 0,13,14
 422 -85 422 -85 434.5 -93.5 c 128,-1,15
 447 -102 447 -102 466 -102 c 0,16,17
 487 -102 487 -102 516 -93 c 1,18,-1
 516 -165 l 1,19,20
 504 -169 504 -169 481.5 -171.5 c 128,-1,21
 459 -174 459 -174 441 -174 c 0,22,23
 369 -174 369 -174 337 -147.5 c 128,-1,24
 305 -121 305 -121 305 -86 c 0,25,26
 305 -58 305 -58 322.5 -36.5 c 128,-1,27
 340 -15 340 -15 369 0 c 1,28,-1
 116 0 l 1,29,-1
 116 106 l 1,0,-1
EndSplineSet
EndChar
StartChar: dotlessi
Encoding: 305 305 150
Width: 632
GlyphClass: 2
Flags: W
AnchorPoint: "Anchor-2" 575 10 basechar 0
AnchorPoint: "Anchor-1" 329 496 basechar 0
AnchorPoint: "Anchor-0" 299 0 basechar 0
LayerCount: 2
Fore
SplineSet
102 107 m 1,0,-1
 268 107 l 1,1,-1
 268 389 l 1,2,-1
 128 389 l 1,3,-1
 128 496 l 1,4,-1
 409 496 l 1,5,-1
 409 107 l 1,6,-1
 575 107 l 1,7,-1
 575 0 l 1,8,-1
 102 0 l 1,9,-1
 102 107 l 1,0,-1
EndSplineSet
EndChar
StartChar: OE
Encoding: 338 338 70
Width: 632
GlyphClass: 2
Flags: W
AnchorPoint: "Anchor-1" 318 668 basechar 0
AnchorPoint: "Anchor-0" 318 0 basechar 0
LayerCount: 2
Fore
SplineSet
59.5 79.5 m 128,-1,1
 6 171 6 171 6 334 c 0,2,3
 6 498 6 498 59.5 589 c 128,-1,4
 113 680 113 680 209 680 c 0,5,6
 277 680 277 680 325 624 c 1,7,-1
 325 668 l 1,8,-1
 626 668 l 1,9,-1
 626 556 l 1,10,-1
 432 556 l 1,11,-1
 432 399 l 1,12,-1
 543 399 l 1,13,-1
 543 288 l 1,14,-1
 432 288 l 1,15,-1
 432 112 l 1,16,-1
 628 112 l 1,17,-1
 628 0 l 1,18,-1
 325 0 l 1,19,-1
 325 44 l 1,20,21
 277 -12 277 -12 208 -12 c 0,22,0
 113 -12 113 -12 59.5 79.5 c 128,-1,1
325 335 m 0,24,25
 325 576 325 576 224 576 c 0,26,27
 179 576 179 576 152 519.5 c 128,-1,28
 125 463 125 463 125 335 c 0,29,30
 125 205 125 205 152 148.5 c 128,-1,31
 179 92 179 92 224 92 c 0,32,23
 325 92 325 92 325 335 c 0,24,25
EndSplineSet
EndChar
StartChar: oe
Encoding: 339 339 181
Width: 632
GlyphClass: 2
Flags: W
AnchorPoint: "Anchor-1" 316 496 basechar 0
AnchorPoint: "Anchor-0" 316 0 basechar 0
LayerCount: 2
Fore
SplineSet
370.5 8 m 128,-1,1
 336 28 336 28 314 66 c 1,2,3
 292 27 292 27 259.5 7.5 c 128,-1,4
 227 -12 227 -12 189 -12 c 0,5,6
 140 -12 140 -12 100.5 17 c 128,-1,7
 61 46 61 46 38 105 c 128,-1,8
 15 164 15 164 15 250 c 0,9,10
 15 379 15 379 64 444.5 c 128,-1,11
 113 510 113 510 190 510 c 0,12,13
 230 510 230 510 265 489 c 128,-1,14
 300 468 300 468 323 427 c 1,15,16
 343 467 343 467 376.5 488.5 c 128,-1,17
 410 510 410 510 455 510 c 0,18,19
 537 510 537 510 582.5 437.5 c 128,-1,20
 628 365 628 365 628 247 c 0,21,22
 628 226 628 226 627 215 c 1,23,-1
 366 215 l 1,24,25
 370 149 370 149 394 115 c 128,-1,26
 418 81 418 81 454 81 c 0,27,28
 499 81 499 81 523 128 c 1,29,-1
 608 97 l 1,30,31
 580 44 580 44 539 16 c 128,-1,32
 498 -12 498 -12 451 -12 c 0,33,0
 405 -12 405 -12 370.5 8 c 128,-1,1
250 133.5 m 128,-1,35
 272 174 272 174 272 250 c 256,36,37
 272 326 272 326 250 365.5 c 128,-1,38
 228 405 228 405 193 405 c 0,39,40
 159 405 159 405 136.5 365 c 128,-1,41
 114 325 114 325 114 250 c 0,42,43
 114 174 114 174 136 133.5 c 128,-1,44
 158 93 158 93 193 93 c 256,45,34
 228 93 228 93 250 133.5 c 128,-1,35
500 381.5 m 128,-1,47
 481 413 481 413 446 413 c 0,48,49
 378 413 378 413 367 295 c 1,50,-1
 520 295 l 1,51,46
 519 350 519 350 500 381.5 c 128,-1,47
EndSplineSet
EndChar
StartChar: Scedilla
Encoding: 350 350 80
Width: 632
GlyphClass: 2
Flags: W
AnchorPoint: "Anchor-1" 316 668 basechar 0
LayerCount: 2
Fore
SplineSet
219 -171 m 1,1,-1
 235 -125 l 1,2,3
 245 -131 245 -131 262 -134.5 c 128,-1,4
 279 -138 279 -138 297 -138 c 0,5,6
 317 -138 317 -138 329 -131 c 128,-1,7
 341 -124 341 -124 341 -110 c 0,8,9
 341 -97 341 -97 330.5 -90 c 128,-1,10
 320 -83 320 -83 303 -83 c 0,11,12
 297 -83 297 -83 283.5 -86 c 128,-1,13
 270 -89 270 -89 266 -89 c 0,14,15
 257 -89 257 -89 252.5 -84 c 128,-1,16
 248 -79 248 -79 248 -71 c 0,17,18
 248 -66 248 -66 252 -58 c 2,19,-1
 281 -10 l 1,20,21
 196 -2 196 -2 134.5 40.5 c 128,-1,22
 73 83 73 83 46 155 c 1,23,-1
 179 203 l 1,24,25
 191 158 191 158 231 131.5 c 128,-1,26
 271 105 271 105 322 105 c 0,27,28
 369 105 369 105 404 127 c 128,-1,29
 439 149 439 149 439 190 c 0,30,31
 439 224 439 224 411.5 243.5 c 128,-1,32
 384 263 384 263 320 277 c 2,33,-1
 258 290 l 2,34,35
 62 328 62 328 62 481 c 0,36,37
 62 539 62 539 97.5 584.5 c 128,-1,38
 133 630 133 630 193 655 c 128,-1,39
 253 680 253 680 324 680 c 0,40,41
 403 680 403 680 470 645 c 128,-1,42
 537 610 537 610 567 539 c 1,43,-1
 435 490 l 1,44,45
 420 525 420 525 387.5 544 c 128,-1,46
 355 563 355 563 314 563 c 0,47,48
 268 563 268 563 238 543 c 128,-1,49
 208 523 208 523 208 487 c 0,50,51
 208 460 208 460 229 442 c 128,-1,52
 250 424 250 424 289 416 c 2,53,-1
 361 400 l 2,54,55
 471 377 471 377 527.5 333.5 c 128,-1,56
 584 290 584 290 584 207 c 0,57,58
 584 144 584 144 550.5 95.5 c 128,-1,59
 517 47 517 47 460 19 c 128,-1,60
 403 -9 403 -9 335 -12 c 1,61,-1
 311 -49 l 1,62,63
 325 -46 325 -46 345 -46 c 0,64,65
 378 -46 378 -46 403.5 -61 c 128,-1,66
 429 -76 429 -76 429 -106 c 0,67,68
 429 -145 429 -145 393 -165.5 c 128,-1,69
 357 -186 357 -186 305 -186 c 0,70,0
 257 -186 257 -186 219 -171 c 1,1,-1
EndSplineSet
Substitution2: "'locl' Localized Forms in Latin lookup 4 subtable" uni0218
AlternateSubs2: "'aalt' Access All Alternates in Latin lookup 0 subtable" uni0218
EndChar
StartChar: florin
Encoding: 402 402 286
Width: 632
GlyphClass: 1
Flags: W
LayerCount: 2
Fore
SplineSet
65 -160 m 1,1,-1
 65 -37 l 1,2,3
 95 -45 95 -45 140 -45 c 0,4,5
 179 -45 179 -45 198.5 -30.5 c 128,-1,6
 218 -16 218 -16 225.5 15 c 128,-1,7
 233 46 233 46 233 102 c 2,8,-1
 233 390 l 1,9,-1
 66 390 l 1,10,-1
 66 496 l 1,11,-1
 233 496 l 1,12,-1
 233 576 l 2,13,14
 233 633 233 633 251 665 c 128,-1,15
 269 697 269 697 307.5 710.5 c 128,-1,16
 346 724 346 724 413 724 c 2,17,-1
 563 724 l 1,18,-1
 563 613 l 1,19,-1
 435 613 l 2,20,21
 396 613 396 613 384 604 c 128,-1,22
 372 595 372 595 372 566 c 2,23,-1
 372 496 l 1,24,-1
 563 496 l 1,25,-1
 563 390 l 1,26,-1
 372 390 l 1,27,-1
 372 40 l 2,28,29
 372 -73 372 -73 322 -122.5 c 128,-1,30
 272 -172 272 -172 172 -172 c 0,31,0
 118 -172 118 -172 65 -160 c 1,1,-1
EndSplineSet
EndChar
StartChar: uni0237
Encoding: 567 567 159
Width: 632
GlyphClass: 2
Flags: W
AnchorPoint: "Anchor-1" 360 496 basechar 0
AnchorPoint: "Anchor-0" 344 -251 basechar 0
LayerCount: 2
Fore
SplineSet
75 -51 m 1,0,-1
 226 -51 l 2,1,2
 258 -51 258 -51 273 -46.5 c 128,-1,3
 288 -42 288 -42 293.5 -31 c 128,-1,4
 299 -20 299 -20 299 5 c 2,5,-1
 299 389 l 1,6,-1
 158 389 l 1,7,-1
 158 496 l 1,8,-1
 440 496 l 1,9,-1
 440 -8 l 2,10,11
 440 -68 440 -68 421.5 -101.5 c 128,-1,12
 403 -135 403 -135 362 -148.5 c 128,-1,13
 321 -162 321 -162 250 -162 c 2,14,-1
 75 -162 l 1,15,-1
 75 -51 l 1,0,-1
EndSplineSet
EndChar
StartChar: gravecomb
Encoding: 768 768 340
Width: 0
GlyphClass: 4
Flags: W
AnchorPoint: "Anchor-5" 366 723 basemark 0
AnchorPoint: "Anchor-5" 366 496 mark 0
AnchorPoint: "Anchor-1" 366 496 mark 0
LayerCount: 2
Fore
SplineSet
223.5 646.5 m 128,-1,1
 216 659 216 659 216 674 c 0,2,3
 216 694 216 694 230.5 708.5 c 128,-1,4
 245 723 245 723 268 723 c 0,5,6
 284 723 284 723 295.5 715 c 128,-1,7
 307 707 307 707 322 689 c 2,8,-1
 416 574 l 1,9,-1
 311 574 l 1,10,-1
 253 617 l 2,11,0
 231 634 231 634 223.5 646.5 c 128,-1,1
EndSplineSet
Substitution2: "Single Substitution lookup 12 subtable" gravecomb.case
Substitution2: "'case' Case-Sensitive Forms in Latin lookup 9 subtable" gravecomb.case
AlternateSubs2: "'aalt' Access All Alternates in Latin lookup 0 subtable" gravecomb.case
EndChar
StartChar: uni0302
Encoding: 770 770 347
Width: 0
GlyphClass: 4
Flags: W
AnchorPoint: "Anchor-5" 316 720 basemark 0
AnchorPoint: "Anchor-5" 316 496 mark 0
AnchorPoint: "Anchor-1" 316 496 mark 0
LayerCount: 2
Fore
SplineSet
316 720 m 256,1,2
 342 720 342 720 365 700 c 2,3,-1
 502 574 l 1,4,-1
 385 574 l 1,5,-1
 317 635 l 1,6,-1
 248 574 l 1,7,-1
 130 574 l 1,8,-1
 267 700 l 2,9,0
 290 720 290 720 316 720 c 256,1,2
EndSplineSet
Substitution2: "Single Substitution lookup 12 subtable" uni0302.case
Substitution2: "'case' Case-Sensitive Forms in Latin lookup 9 subtable" uni0302.case
AlternateSubs2: "'aalt' Access All Alternates in Latin lookup 0 subtable" uni0302.case
EndChar
StartChar: tildecomb
Encoding: 771 771 355
Width: 0
GlyphClass: 4
Flags: W
AnchorPoint: "Anchor-5" 316 683 basemark 0
AnchorPoint: "Anchor-5" 316 496 mark 0
AnchorPoint: "Anchor-1" 316 496 mark 0
LayerCount: 2
Fore
SplineSet
344.5 576 m 128,-1,1
 326 582 326 582 306 593 c 0,2,3
 295 598 295 598 284 602.5 c 128,-1,4
 273 607 273 607 263 607 c 0,5,6
 226 607 226 607 219 574 c 1,7,-1
 138 574 l 1,8,9
 156 683 156 683 258 683 c 0,10,11
 280 683 280 683 296 677 c 128,-1,12
 312 671 312 671 331 660 c 0,13,14
 347 651 347 651 357 647 c 128,-1,15
 367 643 367 643 379 643 c 0,16,17
 393 643 393 643 402.5 648.5 c 128,-1,18
 412 654 412 654 422 665 c 0,19,20
 439 684 439 684 456 684 c 0,21,22
 472 684 472 684 483 673.5 c 128,-1,23
 494 663 494 663 494 647 c 0,24,25
 494 617 494 617 459.5 593.5 c 128,-1,26
 425 570 425 570 388 570 c 0,27,0
 363 570 363 570 344.5 576 c 128,-1,1
EndSplineSet
Substitution2: "Single Substitution lookup 12 subtable" tildecomb.case
Substitution2: "'case' Case-Sensitive Forms in Latin lookup 9 subtable" tildecomb.case
AlternateSubs2: "'aalt' Access All Alternates in Latin lookup 0 subtable" tildecomb.case
EndChar
StartChar: uni0308
Encoding: 776 776 335
Width: 0
GlyphClass: 4
Flags: W
AnchorPoint: "Anchor-5" 316 718 basemark 0
AnchorPoint: "Anchor-5" 316 496 mark 0
AnchorPoint: "Anchor-1" 316 496 mark 0
LayerCount: 2
Fore
SplineSet
366 597 m 128,-1,1
 345 618 345 618 345 647 c 256,2,3
 345 676 345 676 366 697 c 128,-1,4
 387 718 387 718 416 718 c 256,5,6
 445 718 445 718 466.5 697 c 128,-1,7
 488 676 488 676 488 647 c 256,8,9
 488 618 488 618 466.5 597 c 128,-1,10
 445 576 445 576 416 576 c 256,11,0
 387 576 387 576 366 597 c 128,-1,1
165.5 597 m 128,-1,13
 144 618 144 618 144 647 c 256,14,15
 144 676 144 676 165.5 697 c 128,-1,16
 187 718 187 718 216 718 c 256,17,18
 245 718 245 718 266 697 c 128,-1,19
 287 676 287 676 287 647 c 256,20,21
 287 618 287 618 266 597 c 128,-1,22
 245 576 245 576 216 576 c 256,23,12
 187 576 187 576 165.5 597 c 128,-1,13
EndSplineSet
Substitution2: "Single Substitution lookup 12 subtable" uni0308.case
Substitution2: "'case' Case-Sensitive Forms in Latin lookup 9 subtable" uni0308.case
AlternateSubs2: "'aalt' Access All Alternates in Latin lookup 0 subtable" uni0308.case
EndChar
StartChar: uni030B
Encoding: 779 779 344
Width: 0
GlyphClass: 4
Flags: W
AnchorPoint: "Anchor-5" 364 723 basemark 0
AnchorPoint: "Anchor-5" 269 496 mark 0
AnchorPoint: "Anchor-1" 269 496 mark 0
LayerCount: 2
Fore
SplineSet
240.5 715 m 128,-1,1
 252 723 252 723 268 723 c 0,2,3
 290 723 290 723 305 708.5 c 128,-1,4
 320 694 320 694 320 674 c 0,5,6
 320 661 320 661 311 647.5 c 128,-1,7
 302 634 302 634 280 617 c 2,8,-1
 223 574 l 1,9,-1
 121 574 l 1,10,-1
 214 689 l 2,11,0
 229 707 229 707 240.5 715 c 128,-1,1
432.5 715 m 128,-1,13
 444 723 444 723 460 723 c 0,14,15
 483 723 483 723 498 709 c 128,-1,16
 513 695 513 695 513 674 c 0,17,18
 513 661 513 661 503.5 648 c 128,-1,19
 494 635 494 635 472 617 c 2,20,-1
 416 574 l 1,21,-1
 314 574 l 1,22,-1
 406 689 l 2,23,12
 421 707 421 707 432.5 715 c 128,-1,13
EndSplineSet
Substitution2: "Single Substitution lookup 12 subtable" uni030B.case
Substitution2: "'case' Case-Sensitive Forms in Latin lookup 9 subtable" uni030B.case
AlternateSubs2: "'aalt' Access All Alternates in Latin lookup 0 subtable" uni030B.case
EndChar
StartChar: uni0328
Encoding: 808 808 361
Width: 0
GlyphClass: 4
Flags: W
AnchorPoint: "Anchor-2" 422 10 mark 0
LayerCount: 2
Fore
SplineSet
243 -147.5 m 128,-1,1
 211 -121 211 -121 211 -86 c 0,2,3
 211 -49 211 -49 236.5 -25.5 c 128,-1,4
 262 -2 262 -2 305 17 c 1,5,-1
 422 0 l 1,6,7
 375 -10 375 -10 351 -29 c 128,-1,8
 327 -48 327 -48 327 -69 c 0,9,10
 327 -86 327 -86 341 -94 c 128,-1,11
 355 -102 355 -102 374 -102 c 0,12,13
 395 -102 395 -102 422 -93 c 1,14,-1
 422 -165 l 1,15,16
 410 -169 410 -169 387.5 -171.5 c 128,-1,17
 365 -174 365 -174 347 -174 c 0,18,0
 275 -174 275 -174 243 -147.5 c 128,-1,1
EndSplineSet
Substitution2: "Single Substitution lookup 12 subtable" uni0328.case
Substitution2: "'case' Case-Sensitive Forms in Latin lookup 9 subtable" uni0328.case
AlternateSubs2: "'aalt' Access All Alternates in Latin lookup 0 subtable" uni0328.case
EndChar
StartChar: uni1E9E
Encoding: 7838 7838 82
Width: 632
GlyphClass: 1
Flags: W
LayerCount: 2
Fore
SplineSet
244 109 m 1,1,-1
 354 150 l 1,2,3
 368 102 368 102 415 102 c 0,4,5
 444 102 444 102 461 124.5 c 128,-1,6
 478 147 478 147 478 191 c 0,7,8
 478 234 478 234 457 256.5 c 128,-1,9
 436 279 436 279 405 279 c 0,10,11
 383 279 383 279 363 271 c 1,12,-1
 312 358 l 1,13,-1
 465 558 l 1,14,15
 402 568 402 568 363 568 c 0,16,17
 277 568 277 568 235.5 531.5 c 128,-1,18
 194 495 194 495 194 418 c 2,19,-1
 194 0 l 1,20,-1
 49 0 l 1,21,-1
 49 448 l 2,22,23
 49 565 49 565 116 622.5 c 128,-1,24
 183 680 183 680 334 680 c 0,25,26
 455 680 455 680 584 654 c 1,27,-1
 584 533 l 1,28,-1
 457 366 l 1,29,30
 525 358 525 358 568.5 309 c 128,-1,31
 612 260 612 260 612 188 c 0,32,33
 612 128 612 128 585 82.5 c 128,-1,34
 558 37 558 37 514.5 12.5 c 128,-1,35
 471 -12 471 -12 422 -12 c 0,36,0
 290 -12 290 -12 244 109 c 1,1,-1
EndSplineSet
EndChar
StartChar: quoteright
Encoding: 8217 8217 279
Width: 632
GlyphClass: 1
Flags: W
LayerCount: 2
Fore
SplineSet
237.5 516 m 128,-1,1
 215 544 215 544 215 579 c 0,2,3
 215 621 215 621 245 650.5 c 128,-1,4
 275 680 275 680 316 680 c 0,5,6
 359 680 359 680 388 650.5 c 128,-1,7
 417 621 417 621 417 579 c 0,8,9
 417 555 417 555 410 540 c 2,10,-1
 328 334 l 1,11,-1
 237 334 l 1,12,-1
 293 481 l 1,13,0
 260 488 260 488 237.5 516 c 128,-1,1
EndSplineSet
EndChar
StartChar: quotedblright
Encoding: 8221 8221 277
Width: 632
GlyphClass: 1
Flags: W
LayerCount: 2
Fore
SplineSet
366 523 m 128,-1,1
 344 550 344 550 344 583 c 0,2,3
 344 624 344 624 373 652.5 c 128,-1,4
 402 681 402 681 442 681 c 256,5,6
 482 681 482 681 510.5 652.5 c 128,-1,7
 539 624 539 624 539 583 c 0,8,9
 539 564 539 564 532 546 c 2,10,-1
 453 348 l 1,11,-1
 365 348 l 1,12,-1
 420 490 l 1,13,0
 388 496 388 496 366 523 c 128,-1,1
115 522 m 128,-1,15
 93 549 93 549 93 583 c 0,16,17
 93 623 93 623 121.5 651.5 c 128,-1,18
 150 680 150 680 191 680 c 256,19,20
 232 680 232 680 260 652 c 128,-1,21
 288 624 288 624 288 583 c 0,22,23
 288 563 288 563 281 545 c 2,24,-1
 202 348 l 1,25,-1
 114 348 l 1,26,-1
 169 489 l 1,27,14
 137 495 137 495 115 522 c 128,-1,15
EndSplineSet
EndChar
StartChar: quotedblbase
Encoding: 8222 8222 275
Width: 632
GlyphClass: 1
Flags: W
LayerCount: 2
Fore
SplineSet
115 17 m 128,-1,1
 93 44 93 44 93 77 c 0,2,3
 93 117 93 117 121.5 145.5 c 128,-1,4
 150 174 150 174 191 174 c 256,5,6
 232 174 232 174 260 146 c 128,-1,7
 288 118 288 118 288 77 c 0,8,9
 288 59 288 59 281 39 c 2,10,-1
 202 -158 l 1,11,-1
 114 -158 l 1,12,-1
 169 -17 l 1,13,0
 137 -10 137 -10 115 17 c 128,-1,1
366 17 m 128,-1,15
 344 44 344 44 344 78 c 0,16,17
 344 118 344 118 372.5 146.5 c 128,-1,18
 401 175 401 175 442 175 c 256,19,20
 483 175 483 175 511 147 c 128,-1,21
 539 119 539 119 539 78 c 0,22,23
 539 58 539 58 532 40 c 2,24,-1
 453 -158 l 1,25,-1
 365 -158 l 1,26,-1
 420 -16 l 1,27,14
 388 -10 388 -10 366 17 c 128,-1,15
EndSplineSet
EndChar
StartChar: dagger
Encoding: 8224 8224 298
Width: 632
GlyphClass: 1
Flags: W
LayerCount: 2
Fore
SplineSet
249 389 m 1,0,-1
 65 389 l 1,1,-1
 65 496 l 1,2,-1
 249 496 l 1,3,-1
 249 668 l 1,4,-1
 383 668 l 1,5,-1
 383 496 l 1,6,-1
 567 496 l 1,7,-1
 567 389 l 1,8,-1
 383 389 l 1,9,-1
 383 0 l 1,10,-1
 249 0 l 1,11,-1
 249 389 l 1,0,-1
EndSplineSet
EndChar
StartChar: daggerdbl
Encoding: 8225 8225 300
Width: 632
GlyphClass: 1
Flags: W
LayerCount: 2
Fore
SplineSet
250 173 m 1,0,-1
 65 173 l 1,1,-1
 65 281 l 1,2,-1
 250 281 l 1,3,-1
 250 387 l 1,4,-1
 65 387 l 1,5,-1
 65 496 l 1,6,-1
 250 496 l 1,7,-1
 250 668 l 1,8,-1
 382 668 l 1,9,-1
 382 496 l 1,10,-1
 567 496 l 1,11,-1
 567 387 l 1,12,-1
 382 387 l 1,13,-1
 382 281 l 1,14,-1
 567 281 l 1,15,-1
 567 173 l 1,16,-1
 382 173 l 1,17,-1
 382 0 l 1,18,-1
 250 0 l 1,19,-1
 250 173 l 1,0,-1
EndSplineSet
EndChar
StartChar: ellipsis
Encoding: 8230 8230 253
Width: 632
GlyphClass: 1
Flags: W
LayerCount: 2
Fore
SplineSet
53.5 12.5 m 128,-1,1
 29 37 29 37 29 71 c 0,2,3
 29 106 29 106 53.5 131 c 128,-1,4
 78 156 78 156 113 156 c 0,5,6
 147 156 147 156 171.5 131 c 128,-1,7
 196 106 196 106 196 71 c 0,8,9
 196 37 196 37 171.5 12.5 c 128,-1,10
 147 -12 147 -12 113 -12 c 0,11,0
 78 -12 78 -12 53.5 12.5 c 128,-1,1
256.5 12.5 m 128,-1,13
 232 37 232 37 232 71 c 0,14,15
 232 106 232 106 256.5 131 c 128,-1,16
 281 156 281 156 316 156 c 0,17,18
 350 156 350 156 374.5 131 c 128,-1,19
 399 106 399 106 399 71 c 0,20,21
 399 37 399 37 374.5 12.5 c 128,-1,22
 350 -12 350 -12 316 -12 c 0,23,12
 281 -12 281 -12 256.5 12.5 c 128,-1,13
460.5 12.5 m 128,-1,25
 436 37 436 37 436 71 c 0,26,27
 436 106 436 106 460.5 131 c 128,-1,28
 485 156 485 156 519 156 c 0,29,30
 554 156 554 156 578.5 131 c 128,-1,31
 603 106 603 106 603 71 c 0,32,33
 603 37 603 37 578.5 12.5 c 128,-1,34
 554 -12 554 -12 519 -12 c 0,35,24
 485 -12 485 -12 460.5 12.5 c 128,-1,25
EndSplineSet
EndChar
StartChar: uni20B9
Encoding: 8377 8377 306
Width: 632
GlyphClass: 1
Flags: W
LayerCount: 2
Fore
SplineSet
73 289 m 1,0,-1
 73 352 l 1,1,-1
 232 352 l 2,2,3
 324 352 324 352 338 418 c 1,4,-1
 73 418 l 1,5,-1
 73 487 l 1,6,-1
 338 487 l 1,7,8
 324 553 324 553 232 553 c 2,9,-1
 73 553 l 1,10,-1
 73 668 l 1,11,-1
 574 668 l 1,12,-1
 574 599 l 1,13,-1
 426 599 l 1,14,15
 475 557 475 557 484 487 c 1,16,-1
 574 487 l 1,17,-1
 574 418 l 1,18,-1
 484 418 l 1,19,20
 475 343 475 343 424 300 c 128,-1,21
 373 257 373 257 292 245 c 1,22,-1
 290 245 l 1,23,-1
 527 0 l 1,24,-1
 347 0 l 1,25,-1
 73 289 l 1,0,-1
EndSplineSet
EndChar
StartChar: estimated
Encoding: 8494 8494 301
Width: 632
GlyphClass: 1
Flags: W
LayerCount: 2
Fore
SplineSet
186.5 22.5 m 128,-1,1
 126 57 126 57 90.5 117 c 128,-1,2
 55 177 55 177 55 251 c 0,3,4
 55 320 55 320 89.5 379 c 128,-1,5
 124 438 124 438 184.5 473.5 c 128,-1,6
 245 509 245 509 317 509 c 0,7,8
 387 509 387 509 446.5 474 c 128,-1,9
 506 439 506 439 541 379 c 128,-1,10
 576 319 576 319 576 249 c 1,11,-1
 187 249 l 1,12,-1
 187 99 l 1,13,14
 212 76 212 76 245.5 63.5 c 128,-1,15
 279 51 279 51 317 51 c 0,16,17
 361 51 361 51 400 70 c 128,-1,18
 439 89 439 89 467 122 c 1,19,-1
 529 100 l 1,20,21
 493 48 493 48 437 18 c 128,-1,22
 381 -12 381 -12 317 -12 c 0,23,0
 247 -12 247 -12 186.5 22.5 c 128,-1,1
445 308 m 1,24,-1
 445 397 l 1,25,26
 419 420 419 420 385.5 433 c 128,-1,27
 352 446 352 446 317 446 c 0,28,29
 279 446 279 446 245.5 433 c 128,-1,30
 212 420 212 420 187 397 c 1,31,-1
 187 308 l 1,32,-1
 445 308 l 1,24,-1
EndSplineSet
EndChar
StartChar: partialdiff
Encoding: 8706 8706 331
Width: 632
GlyphClass: 1
Flags: W
LayerCount: 2
Fore
SplineSet
184.5 15.5 m 128,-1,1
 129 43 129 43 96.5 96.5 c 128,-1,2
 64 150 64 150 64 225 c 0,3,4
 64 292 64 292 92.5 346 c 128,-1,5
 121 400 121 400 171.5 430.5 c 128,-1,6
 222 461 222 461 285 461 c 0,7,8
 349 461 349 461 392.5 434.5 c 128,-1,9
 436 408 436 408 454 365 c 1,10,11
 447 473 447 473 369 521.5 c 128,-1,12
 291 570 291 570 173 570 c 0,13,14
 152 570 152 570 141 569 c 1,15,-1
 141 680 l 1,16,17
 337 680 337 680 452.5 595.5 c 128,-1,18
 568 511 568 511 568 306 c 0,19,20
 568 155 568 155 502.5 71.5 c 128,-1,21
 437 -12 437 -12 308 -12 c 0,22,0
 240 -12 240 -12 184.5 15.5 c 128,-1,1
393.5 133.5 m 128,-1,24
 424 168 424 168 424 224 c 256,25,26
 424 280 424 280 394 314.5 c 128,-1,27
 364 349 364 349 314 349 c 256,28,29
 264 349 264 349 233.5 314.5 c 128,-1,30
 203 280 203 280 203 224 c 256,31,32
 203 168 203 168 234 133.5 c 128,-1,33
 265 99 265 99 314 99 c 256,34,23
 363 99 363 99 393.5 133.5 c 128,-1,24
EndSplineSet
EndChar
StartChar: summation
Encoding: 8721 8721 329
Width: 632
GlyphClass: 1
Flags: W
LayerCount: 2
Fore
SplineSet
54 -43 m 1,0,-1
 292 254 l 1,1,-1
 54 549 l 1,2,-1
 54 668 l 1,3,-1
 578 668 l 1,4,-1
 578 549 l 1,5,-1
 211 549 l 1,6,-1
 451 254 l 1,7,-1
 211 -43 l 1,8,-1
 578 -43 l 1,9,-1
 578 -162 l 1,10,-1
 54 -162 l 1,11,-1
 54 -43 l 1,0,-1
EndSplineSet
EndChar
StartChar: minus
Encoding: 8722 8722 312
Width: 632
GlyphClass: 1
Flags: W
LayerCount: 2
Fore
SplineSet
61 308 m 1,0,-1
 571 308 l 1,1,-1
 571 189 l 1,2,-1
 61 189 l 1,3,-1
 61 308 l 1,0,-1
EndSplineSet
EndChar
StartChar: integral
Encoding: 8747 8747 327
Width: 632
GlyphClass: 1
Flags: W
LayerCount: 2
Fore
SplineSet
143.5 -150.5 m 128,-1,1
 115 -127 115 -127 115 -94 c 0,2,3
 115 -68 115 -68 130.5 -51.5 c 128,-1,4
 146 -35 146 -35 173 -35 c 0,5,6
 199 -35 199 -35 214 -51 c 128,-1,7
 229 -67 229 -67 229 -93 c 0,8,9
 229 -102 229 -102 226 -112 c 1,10,11
 239 -104 239 -104 245 -84 c 128,-1,12
 251 -64 251 -64 252 -21 c 2,13,-1
 257 435 l 2,14,15
 259 568 259 568 301.5 624 c 128,-1,16
 344 680 344 680 412 680 c 0,17,18
 461 680 461 680 489.5 657 c 128,-1,19
 518 634 518 634 518 601 c 0,20,21
 518 575 518 575 502.5 558.5 c 128,-1,22
 487 542 487 542 460 542 c 0,23,24
 434 542 434 542 419 558 c 128,-1,25
 404 574 404 574 404 600 c 0,26,27
 404 610 404 610 407 619 c 1,28,29
 394 611 394 611 388 591 c 128,-1,30
 382 571 382 571 381 528 c 2,31,-1
 376 72 l 2,32,33
 374 -61 374 -61 331.5 -117.5 c 128,-1,34
 289 -174 289 -174 221 -174 c 0,35,0
 172 -174 172 -174 143.5 -150.5 c 128,-1,1
EndSplineSet
EndChar
StartChar: notequal
Encoding: 8800 8800 316
Width: 632
GlyphClass: 1
Flags: W
LayerCount: 2
Fore
SplineSet
143 101 m 1,0,-1
 61 101 l 1,1,-1
 61 219 l 1,2,-1
 226 219 l 1,3,-1
 273 285 l 1,4,-1
 61 285 l 1,5,-1
 61 404 l 1,6,-1
 354 404 l 1,7,-1
 419 496 l 1,8,-1
 560 496 l 1,9,-1
 495 404 l 1,10,-1
 571 404 l 1,11,-1
 571 285 l 1,12,-1
 413 285 l 1,13,-1
 367 219 l 1,14,-1
 571 219 l 1,15,-1
 571 101 l 1,16,-1
 283 101 l 1,17,-1
 213 0 l 1,18,-1
 72 0 l 1,19,-1
 143 101 l 1,0,-1
EndSplineSet
EndChar
StartChar: gravecomb.case
Encoding: 65543 -1 341
Width: 0
GlyphClass: 4
Flags: W
AnchorPoint: "Anchor-5" 371 878 basemark 0
AnchorPoint: "Anchor-5" 371 668 mark 0
AnchorPoint: "Anchor-1" 371 668 mark 0
LayerCount: 2
Fore
SplineSet
219 800 m 128,-1,1
 211 812 211 812 211 828 c 0,2,3
 211 848 211 848 225 862 c 128,-1,4
 239 876 239 876 262 876 c 0,5,6
 277 876 277 876 291 868 c 128,-1,7
 305 860 305 860 321 841 c 2,8,-1
 421 731 l 1,9,-1
 308 731 l 1,10,-1
 249 772 l 2,11,0
 227 788 227 788 219 800 c 128,-1,1
EndSplineSet
EndChar
StartChar: uni0307.large
Encoding: 65542 -1 339
Width: 0
GlyphClass: 4
Flags: W
AnchorPoint: "Anchor-5" 316 751 basemark 0
AnchorPoint: "Anchor-5" 316 496 mark 0
AnchorPoint: "Anchor-1" 316 496 mark 0
LayerCount: 2
Fore
SplineSet
256 606 m 128,-1,1
 231 631 231 631 231 666 c 256,2,3
 231 701 231 701 256 726 c 128,-1,4
 281 751 281 751 316 751 c 256,5,6
 351 751 351 751 376 726 c 128,-1,7
 401 701 401 701 401 666 c 256,8,9
 401 631 401 631 376 606 c 128,-1,10
 351 581 351 581 316 581 c 256,11,0
 281 581 281 581 256 606 c 128,-1,1
EndSplineSet
EndChar
StartChar: uni0328.alt
Encoding: 65553 -1 362
Width: 0
GlyphClass: 4
Flags: W
AnchorPoint: "Anchor-2" 422 10 mark 0
LayerCount: 2
Fore
SplineSet
243 -147.5 m 128,-1,1
 211 -121 211 -121 211 -84 c 0,2,3
 211 -37 211 -37 249.5 -5.5 c 128,-1,4
 288 26 288 26 348 39 c 1,5,-1
 407 38 l 1,6,7
 370 13 370 13 348.5 -9.5 c 128,-1,8
 327 -32 327 -32 327 -61 c 0,9,10
 327 -81 327 -81 341 -91.5 c 128,-1,11
 355 -102 355 -102 375 -102 c 256,12,13
 395 -102 395 -102 422 -93 c 1,14,-1
 422 -164 l 1,15,16
 410 -168 410 -168 388 -171 c 128,-1,17
 366 -174 366 -174 347 -174 c 0,18,0
 275 -174 275 -174 243 -147.5 c 128,-1,1
EndSplineSet
EndChar
StartChar: uni0328.case
Encoding: 65554 -1 363
Width: 0
GlyphClass: 4
Flags: W
AnchorPoint: "Anchor-2" 422 10 mark 0
LayerCount: 2
Fore
SplineSet
243 -147.5 m 128,-1,1
 211 -121 211 -121 211 -86 c 0,2,3
 211 -54 211 -54 234 -30 c 128,-1,4
 257 -6 257 -6 294 8 c 1,5,-1
 422 0 l 1,6,7
 389 -4 389 -4 358.5 -24.5 c 128,-1,8
 328 -45 328 -45 328 -68 c 0,9,10
 328 -85 328 -85 340.5 -93.5 c 128,-1,11
 353 -102 353 -102 372 -102 c 0,12,13
 393 -102 393 -102 422 -93 c 1,14,-1
 422 -165 l 1,15,16
 410 -169 410 -169 387.5 -171.5 c 128,-1,17
 365 -174 365 -174 347 -174 c 0,18,0
 275 -174 275 -174 243 -147.5 c 128,-1,1
EndSplineSet
EndChar
